<?xml version="1.0" encoding="UTF-8"?>
<svg version="1.1" xmlns="http://www.w3.org/2000/svg" width="512" height="512">
<path d="M0 0 C0.75638711 -0.00350607 1.51277423 -0.00701215 2.29208216 -0.01062447 C4.83515579 -0.01995323 7.37800116 -0.01501137 9.9210844 -0.01015663 C11.759361 -0.01389215 13.59763601 -0.01849327 15.4359085 -0.02388728 C20.49428691 -0.03614488 25.55259933 -0.03585356 30.61098921 -0.03349853 C36.0637401 -0.03309106 41.51646964 -0.04412281 46.96921062 -0.05361366 C57.6547246 -0.0702397 68.34021651 -0.07572393 79.02574233 -0.07683842 C87.70976914 -0.07778812 96.39378865 -0.08189452 105.07781315 -0.08823967 C129.68828817 -0.10585635 154.29874675 -0.11509 178.909228 -0.11357872 C179.90431272 -0.11351889 179.90431272 -0.11351889 180.91950017 -0.11345784 C182.26103627 -0.11337697 183.60257238 -0.11329337 184.94410849 -0.11320706 C205.8164818 -0.11198153 226.68879012 -0.12699458 247.56114483 -0.15435219 C271.00866959 -0.1850724 294.45615872 -0.20225938 317.90370578 -0.20042574 C330.31962197 -0.19976121 342.7354649 -0.20528116 355.15136433 -0.22678185 C365.72195607 -0.24496941 376.29244132 -0.24936091 386.86304191 -0.235763 C392.25742712 -0.22922116 397.65160787 -0.22916007 403.04597378 -0.2464695 C407.98386355 -0.26215139 412.92138593 -0.25938656 417.85926648 -0.24190123 C419.6459248 -0.23882056 421.43261021 -0.24250372 423.21923659 -0.25362138 C441.17507946 -0.35795818 441.17507946 -0.35795818 448.68394756 6.22211266 C449.22277569 6.87308922 449.76160381 7.52406578 450.31676006 8.19476891 C450.87105694 8.84316734 451.42535381 9.49156578 451.99644756 10.15961266 C455.24952304 14.88096815 455.69289458 18.90866697 455.69902897 24.58848572 C455.70253504 25.32033681 455.70604112 26.0521879 455.70965344 26.8062163 C455.71897934 29.26585685 455.71404107 31.72526125 455.7091856 34.18491173 C455.71292128 35.96330311 455.71752247 37.74169285 455.72291625 39.52007997 C455.73517219 44.41304513 455.73488272 49.30594204 455.73252749 54.19891906 C455.73211997 59.4738119 455.74315238 64.74868268 455.75264263 70.02356529 C455.7692686 80.36116581 455.77475293 90.69874352 455.77586739 101.03635629 C455.77681725 109.43956027 455.78092447 117.84275672 455.78726864 126.24595833 C455.8048866 150.06651139 455.81410682 173.88704641 455.81260769 197.70760603 C455.81252778 198.99227115 455.81244787 200.27693626 455.81236553 201.60053062 C455.81228377 202.88676328 455.81220201 204.17299594 455.81211777 205.49820535 C455.81130506 226.33856862 455.83043763 247.17885959 455.85864227 268.01920195 C455.88736882 289.4139433 455.90118263 310.80864938 455.89945471 332.20341051 C455.89879066 344.21644669 455.90428954 356.2294071 455.92581081 368.24242592 C455.94401973 378.47220743 455.94837239 388.70187885 455.93479197 398.93166955 C455.92826048 404.15023079 455.92815174 409.3685808 455.94549847 414.58712196 C455.96122634 419.3678866 455.95836829 424.14827246 455.9409302 428.92902784 C455.93785966 430.65517473 455.94149473 432.38134986 455.95265035 434.10746343 C456.03581988 447.89342605 454.30964204 458.92041828 444.44176006 469.25726891 C434.79475429 478.46660334 424.4830167 480.86602789 411.43394756 480.77484703 C410.18204632 480.78185631 408.93014507 480.78886559 407.64030743 480.79608727 C404.23915442 480.81057556 400.83898761 480.8073223 397.43789196 480.79457092 C393.85827714 480.78435756 390.27870097 480.79385951 386.69908428 480.80011559 C380.69070766 480.80736798 374.68252849 480.79786801 368.67418194 480.77875328 C361.7536127 480.756989 354.83351502 480.76404209 347.91295719 480.7860589 C341.94314543 480.80428205 335.97347462 480.80673767 330.00364399 480.79630423 C326.4503651 480.79010703 322.89730698 480.78912829 319.34404278 480.80245018 C315.37903672 480.81628067 311.41454776 480.79704655 307.44957256 480.77484703 C306.29080608 480.78294395 305.1320396 480.79104088 303.93815899 480.79938316 C292.26038177 480.67888057 282.94508225 477.3748071 274.44176006 469.25726891 C264.49992404 458.84294958 262.8351768 447.95486782 263.05113506 433.96430016 C263.05861447 432.52271378 263.06429934 431.0811171 263.06828594 429.63951683 C263.08340904 425.88285797 263.12257134 422.12683804 263.16710186 418.37042809 C263.2083462 414.52224935 263.22635857 410.6739653 263.24644756 406.82562828 C263.28908234 399.30255354 263.35716655 391.78000144 263.44176006 384.25726891 C262.87137005 384.25878779 262.30098003 384.26030667 261.71330547 384.26187158 C227.90185471 384.35139815 194.09043092 384.42002233 160.27888745 384.46153022 C156.21843203 384.46653301 152.15797685 384.4717103 148.09752178 384.47699547 C146.8849846 384.47856933 146.8849846 384.47856933 145.64795172 384.48017499 C132.56183608 384.49757674 119.47579078 384.52911316 106.38971686 384.56588009 C92.96061525 384.60329591 79.53155047 384.62550611 66.10239887 384.63362288 C57.81692168 384.63910934 49.53164331 384.65643318 41.24622732 384.68893477 C35.56338205 384.71009059 29.88063945 384.71646655 24.19775766 384.71127442 C20.91973 384.70871424 17.64212245 384.71481015 14.36414051 384.73409081 C10.80648471 384.7539911 7.24967968 384.74920687 3.6920042 384.73828697 C2.66085995 384.74993834 1.62971569 384.7615897 0.56732464 384.77359414 C-6.81480536 384.71234717 -12.1935233 383.20579237 -17.80042744 378.29242516 C-18.33925556 377.64144859 -18.87808369 376.99047203 -19.43323994 376.31976891 C-19.98753681 375.67137047 -20.54183369 375.02297203 -21.11292744 374.35492516 C-24.06652973 370.06821048 -24.80862979 366.35926736 -24.81550884 361.19829655 C-24.82195773 359.97408644 -24.82840663 358.74987634 -24.83505094 357.48856896 C-24.83210877 356.13320416 -24.82897335 354.77783977 -24.82566547 353.42247581 C-24.8294022 351.98017953 -24.83400381 350.53788527 -24.83939612 349.09559423 C-24.85163886 345.13176183 -24.85136416 341.16801376 -24.84900737 337.20416677 C-24.84859952 332.92933815 -24.85963526 328.65453668 -24.86912251 324.37972069 C-24.88574048 316.0042987 -24.89123241 307.62890486 -24.89234726 299.25346776 C-24.89329736 292.44587059 -24.89740575 285.63828271 -24.90374851 278.83068848 C-24.92136312 259.53261486 -24.93058704 240.23456351 -24.92908756 220.9364818 C-24.92900765 219.89596215 -24.92892774 218.8554425 -24.92884541 217.78339195 C-24.92876364 216.74160277 -24.92868188 215.69981359 -24.92859764 214.62645505 C-24.92778469 197.74157201 -24.94692419 180.85677817 -24.97512214 163.97192093 C-25.00384287 146.63732742 -25.01766288 129.30277741 -25.01593459 111.9681595 C-25.0152704 102.23502004 -25.02077511 92.50197409 -25.04229069 82.76885605 C-25.06049181 74.48195818 -25.06485863 66.1951962 -25.05127184 57.90828701 C-25.04473677 53.68043472 -25.04464433 49.45284321 -25.06197834 45.22501564 C-25.07769048 41.35293516 -25.07486477 37.48132262 -25.05741008 33.60925368 C-25.05433605 32.21021011 -25.05798783 30.81113177 -25.06913023 29.41212919 C-25.13585393 20.43857809 -24.70684718 13.99146485 -18.59339619 7.01508141 C-17.94241962 6.47625328 -17.29144306 5.93742516 -16.62073994 5.38226891 C-15.9723415 4.82797203 -15.32394306 4.27367516 -14.65589619 3.70258141 C-9.93276091 0.44827963 -5.61890187 -0.03299062 0 0 Z M-6.55823994 19.25726891 C-12.13459945 33.19816769 -8.55823994 49.2424614 -8.55823994 64.25726891 C139.28176006 64.25726891 287.12176006 64.25726891 439.44176006 64.25726891 C441.37768142 40.4461579 441.37768142 40.4461579 436.44176006 18.25726891 C432.49888132 15.85254567 428.63340923 16.00580168 424.09657669 16.00279331 C422.99655308 15.99798359 422.99655308 15.99798359 421.87430677 15.99307671 C419.40961586 15.98475563 416.94516663 15.99070833 414.48047161 15.99657249 C412.6985171 15.99355278 410.91656389 15.9896642 409.13461298 15.98497993 C404.23199128 15.9746681 399.32944244 15.97688983 394.42681468 15.98116052 C389.14179509 15.98362196 383.85679332 15.97462086 378.5717802 15.96712303 C368.21580172 15.95435798 357.85984914 15.95258457 347.50386412 15.95492329 C339.08869915 15.95670453 330.67354206 15.95496101 322.25837803 15.95069885 C321.06183176 15.95010366 319.86528549 15.94950847 318.63248025 15.94889525 C316.2018983 15.94768353 313.77131636 15.9464694 311.34073441 15.94525287 C288.53454863 15.93437046 265.72837763 15.9365432 242.92219102 15.94263772 C222.04612973 15.94780803 201.17011509 15.93654965 180.29406304 15.9175395 C158.87109626 15.89818048 137.44815157 15.88990166 116.02517599 15.89366275 C103.99275264 15.89557767 91.960369 15.89305893 79.92795277 15.87894821 C69.68523158 15.86705812 59.44257456 15.86560285 49.19985253 15.87773838 C43.97181984 15.88364364 38.74390463 15.88468112 33.51587963 15.87273598 C28.73234639 15.86193322 23.94902953 15.86491334 19.16550665 15.87899766 C17.4327211 15.88166011 15.6999189 15.87922986 13.96714962 15.8712618 C11.61543168 15.86119604 9.26447177 15.86954271 6.91278458 15.8825388 C5.6054598 15.88248378 4.29813502 15.88242876 2.95119435 15.88237208 C-0.94490563 16.29857463 -3.30982094 17.0708332 -6.55823994 19.25726891 Z M-8.55823994 80.25726891 C-8.62011494 126.33351891 -8.68198994 172.40976891 -8.74573994 219.88226891 C-8.77305195 234.44561363 -8.80036396 249.00895836 -8.82850361 264.01361656 C-8.83853522 277.03709877 -8.83853522 277.03709877 -8.84457111 290.06058311 C-8.8473727 295.87368964 -8.85839397 301.68671002 -8.87496662 307.4997921 C-8.8940454 314.20182403 -8.90275181 320.90377312 -8.89857479 327.60583242 C-8.89676532 331.03518984 -8.89966007 334.46436203 -8.91588533 337.89368558 C-8.93074907 341.56456235 -8.92723128 345.23497209 -8.91900349 348.90585899 C-8.92774148 349.97754011 -8.93647947 351.04922123 -8.94548225 352.15337753 C-8.91307582 357.51195815 -8.87221273 361.78506951 -5.55823994 366.25726891 C-1.04996797 369.28719526 4.83267746 368.52788197 10.06549358 368.49777794 C11.14782353 368.49948679 12.23015348 368.50119564 13.3452813 368.50295627 C16.97817519 368.506255 20.61088509 368.49524098 24.24376202 368.48431969 C26.84545163 368.48375566 29.44714156 368.48407197 32.04883099 368.4852047 C37.65328475 368.48625309 43.25769193 368.47998125 48.86213398 368.46872902 C56.96519637 368.45247082 65.06823625 368.44726569 73.17131319 368.44475304 C86.31819692 368.44037644 99.46505583 368.42706828 112.61192608 368.40814781 C125.38243263 368.38978811 138.15293243 368.37563205 150.92344952 368.36713219 C151.71070273 368.36660674 152.49795595 368.36608129 153.30906532 368.36553992 C157.25850692 368.36292984 161.20794856 368.36040242 165.15739024 368.35791612 C197.91886492 368.33718471 230.68030917 368.30196012 263.44176006 368.25726891 C263.4439599 367.02785214 263.4439599 367.02785214 263.44620419 365.77359867 C263.48331028 345.79957128 263.5423754 325.82571307 263.6256628 305.85182285 C263.66541505 296.19245386 263.6978269 286.53316588 263.71275616 276.87372398 C263.72579247 268.45123899 263.75280754 260.02893255 263.79637313 251.60654813 C263.81894351 247.14992724 263.83467341 242.69352622 263.83364391 238.23684311 C263.83289467 234.03505372 263.8509505 229.83374955 263.88292789 225.6320858 C263.89138976 224.09673656 263.89320227 222.56133266 263.88756275 221.02597046 C263.84560879 207.83920976 265.88165125 196.92684461 275.44176006 187.25726891 C285.3679214 178.81017135 294.42248897 176.80380179 307.23839092 176.85321617 C308.49160641 176.84635292 309.74482189 176.83948967 311.0360136 176.83241844 C314.44945212 176.81732617 317.86234113 176.81563607 321.27577186 176.82136083 C324.1359122 176.82446727 326.99600394 176.81834417 329.85613734 176.81232208 C336.60859694 176.79831159 343.36092993 176.79980912 350.11339092 176.81122398 C357.05664459 176.82270271 363.99951186 176.80862601 370.94271463 176.78182751 C376.92604522 176.75960691 382.90925508 176.75304735 388.89262396 176.75890392 C392.45653583 176.76225947 396.0202001 176.7599527 399.58407688 176.74265289 C403.56144786 176.72418558 407.53835053 176.73843618 411.51573467 176.75555992 C412.68123852 176.74589195 413.84674236 176.73622398 415.04756451 176.72626305 C422.37921849 176.79213349 427.84213647 178.12977796 434.44176006 181.25726891 C436.09176006 181.91726891 437.74176006 182.57726891 439.44176006 183.25726891 C439.44176006 149.26726891 439.44176006 115.27726891 439.44176006 80.25726891 C291.60176006 80.25726891 143.76176006 80.25726891 -8.55823994 80.25726891 Z M285.19176006 201.69476891 C279.51157681 208.66522877 279.44176006 215.4031705 279.44176006 224.25726891 C332.24176006 224.25726891 385.04176006 224.25726891 439.44176006 224.25726891 C439.44176006 215.27040498 439.30022801 208.38243262 433.44176006 201.25726891 C424.8324073 192.70941152 416.33163627 192.10675937 404.62217999 192.11200523 C403.00395084 192.10696732 403.00395084 192.10696732 401.3530302 192.10182762 C397.7927513 192.09234223 394.23251956 192.0903757 390.67222881 192.08930016 C388.19129702 192.08608585 385.71036541 192.08272164 383.22943401 192.0792141 C378.03026674 192.07322882 372.83111608 192.07137358 367.63194561 192.07196617 C360.98091883 192.07206775 354.33003635 192.05841759 347.67902946 192.04119396 C342.55481766 192.03005688 337.43063155 192.02804749 332.30640888 192.0285759 C329.8548963 192.02739829 327.403383 192.02298882 324.95188236 192.01524353 C321.51768742 192.00540954 318.08372265 192.0083353 314.64952374 192.01434898 C313.64402477 192.00872948 312.63852581 192.00310997 311.60255718 191.99732018 C300.88026064 192.04485765 292.65570977 193.42147525 285.19176006 201.69476891 Z M279.44176006 240.25726891 C279.44176006 298.33726891 279.44176006 356.41726891 279.44176006 416.25726891 C332.24176006 416.25726891 385.04176006 416.25726891 439.44176006 416.25726891 C439.44176006 358.17726891 439.44176006 300.09726891 439.44176006 240.25726891 C386.64176006 240.25726891 333.84176006 240.25726891 279.44176006 240.25726891 Z M279.44176006 432.25726891 C279.44176006 441.24413283 279.58329212 448.13210519 285.44176006 455.25726891 C294.05111282 463.80512629 302.55188385 464.40777844 314.26134014 464.40253258 C315.87956928 464.4075705 315.87956928 464.4075705 317.53048992 464.41271019 C321.09076882 464.42219558 324.65100057 464.42416211 328.21129131 464.42523766 C330.69222311 464.42845196 333.17315471 464.43181617 335.65408611 464.43532372 C340.85325338 464.44130899 346.05240404 464.44316424 351.25157452 464.44257164 C357.90260129 464.44247007 364.55348378 464.45612022 371.20449066 464.47334385 C376.32870247 464.48448093 381.45288858 464.48649032 386.57711124 464.48596191 C389.02862383 464.48713953 391.48013713 464.49154899 393.93163776 464.49929428 C397.36583271 464.50912827 400.79979748 464.50620252 404.23399639 464.50018883 C405.23949535 464.50580833 406.24499432 464.51142784 407.28096294 464.51721764 C416.78036814 464.47510187 425.07635886 463.66127012 432.07066631 456.61664391 C438.89479077 449.05255415 439.44176006 442.38725712 439.44176006 432.25726891 C386.64176006 432.25726891 333.84176006 432.25726891 279.44176006 432.25726891 Z " fill="#000000" transform="translate(40.55823993682861,15.742731094360352)"/>
<path d="M0 0 C0.94797958 -0.00623996 1.89595917 -0.01247993 2.87266541 -0.01890898 C6.05728845 -0.03489625 9.24115218 -0.02221207 12.42578125 -0.00964355 C14.70557096 -0.01506211 16.98535717 -0.02218326 19.26513672 -0.03088379 C25.46340485 -0.04915162 31.66140728 -0.04203519 37.85968018 -0.02936745 C44.33875254 -0.01925776 50.81780177 -0.02862747 57.296875 -0.03491211 C68.87591855 -0.04266121 80.45484057 -0.03021132 92.03386497 -0.00987476 C102.53435542 0.00799652 113.034669 0.00489249 123.53515625 -0.0135498 C135.72646104 -0.03495168 147.91763985 -0.04292622 160.10896301 -0.03110075 C166.56340788 -0.02485665 173.01773088 -0.02405542 179.47216797 -0.0372467 C185.53953207 -0.04878018 191.60656133 -0.04082497 197.67388916 -0.01766968 C199.90398604 -0.01236923 202.13411097 -0.01391904 204.36419678 -0.02272034 C207.4020357 -0.03360641 210.43879302 -0.01999576 213.4765625 0 C214.36488266 -0.00892289 215.25320282 -0.01784577 216.16844177 -0.02703905 C219.86338305 0.02033036 222.09608642 0.11290747 225.28539276 2.07471466 C227.24505 5.35664376 227.29346252 8.23265492 227.24621582 11.9473877 C227.25245578 12.69935677 227.25869575 13.45132584 227.2651248 14.22608185 C227.28108797 16.74743444 227.26843814 19.2678247 227.25585938 21.78918457 C227.26127904 23.59607508 227.26840082 25.40296117 227.27709961 27.20983887 C227.29535447 32.11891487 227.28825651 37.02765509 227.27558327 41.93673706 C227.26546681 47.07050491 227.27484518 52.20424373 227.28112793 57.3380127 C227.28840828 65.95981008 227.27880644 74.58147048 227.25976562 83.20324707 C227.23799617 93.17582426 227.24504726 103.14807436 227.26707125 113.12064362 C227.28521418 121.67785698 227.28778898 130.2349718 227.27731657 138.79219818 C227.27107556 143.90526187 227.27026271 149.01817174 227.28346252 154.13122559 C227.2950043 158.93791032 227.28702594 163.74417273 227.2638855 168.55081177 C227.25858945 170.31649066 227.26012746 172.08220501 227.26893616 173.84786987 C227.27984026 176.2552227 227.26619171 178.66121568 227.24621582 181.06848145 C227.25513871 181.77003609 227.26406159 182.47159073 227.27325487 183.1944046 C227.22365345 186.26836551 226.86974009 188.28777434 225.28539276 190.94115448 C221.42775448 193.31406624 217.92479989 193.06055024 213.4765625 193.01586914 C212.05459312 193.02522908 212.05459312 193.02522908 210.60389709 193.03477812 C207.41927405 193.05076539 204.23541032 193.03808121 201.05078125 193.0255127 C198.77099154 193.03093125 196.49120533 193.0380524 194.21142578 193.04675293 C188.01315765 193.06502076 181.81515522 193.05790434 175.61688232 193.04523659 C169.13780996 193.0351269 162.65876073 193.04449661 156.1796875 193.05078125 C144.60064395 193.05853035 133.02172193 193.04608047 121.44269753 193.0257439 C110.94220708 193.00787262 100.4418935 193.01097665 89.94140625 193.02941895 C77.75010146 193.05082082 65.55892265 193.05879536 53.36759949 193.04696989 C46.91315462 193.0407258 40.45883162 193.03992456 34.00439453 193.05311584 C27.93703043 193.06464932 21.87000117 193.05669411 15.80267334 193.03353882 C13.57257646 193.02823837 11.34245153 193.02978818 9.11236572 193.03858948 C6.0745268 193.04947556 3.03776948 193.0358649 0 193.01586914 C-0.88832016 193.02479203 -1.77664032 193.03371491 -2.69187927 193.04290819 C-6.38682055 192.99553878 -8.61952392 192.90296167 -11.80883026 190.94115448 C-13.7684875 187.65922538 -13.81690002 184.78321422 -13.76965332 181.06848145 C-13.77589328 180.31651237 -13.78213325 179.5645433 -13.7885623 178.78978729 C-13.80452547 176.2684347 -13.79187564 173.74804444 -13.77929688 171.22668457 C-13.78471654 169.41979406 -13.79183832 167.61290797 -13.80053711 165.80603027 C-13.81879197 160.89695427 -13.81169401 155.98821405 -13.79902077 151.07913208 C-13.78890431 145.94536423 -13.79828268 140.81162541 -13.80456543 135.67785645 C-13.81184578 127.05605906 -13.80224394 118.43439866 -13.78320312 109.81262207 C-13.76143367 99.84004488 -13.76848476 89.86779478 -13.79050875 79.89522552 C-13.80865168 71.33801216 -13.81122648 62.78089734 -13.80075407 54.22367096 C-13.79451306 49.11060727 -13.79370021 43.9976974 -13.80690002 38.88464355 C-13.8184418 34.07795882 -13.81046344 29.27169641 -13.787323 24.46505737 C-13.78202695 22.69937848 -13.78356496 20.93366413 -13.79237366 19.16799927 C-13.80327776 16.76064644 -13.78962921 14.35465347 -13.76965332 11.9473877 C-13.77857621 11.24583305 -13.78749909 10.54427841 -13.79669237 9.82146454 C-13.74709095 6.74750363 -13.39317759 4.7280948 -11.80883026 2.07471466 C-7.95119198 -0.2981971 -4.44823739 -0.0446811 0 0 Z M2.73828125 16.50793457 C2.73828125 62.04793457 2.73828125 107.58793457 2.73828125 154.50793457 C6.18291897 150.20254763 6.18291897 150.20254763 9.2265625 145.70715332 C9.67749268 144.99019287 10.12842285 144.27323242 10.59301758 143.5345459 C11.07407959 142.76263916 11.5551416 141.99073242 12.05078125 141.19543457 C12.56858154 140.37003174 13.08638184 139.54462891 13.61987305 138.69421387 C15.32919938 135.9674374 17.03389144 133.23779892 18.73828125 130.50793457 C19.936031 128.59376762 21.13395051 126.67970687 22.33203125 124.76574707 C25.49613796 119.70862086 28.65608051 114.64890513 31.81494141 109.58850098 C35.57026949 103.5736838 39.32937539 97.56122673 43.08837891 91.54870605 C46.35333691 86.32588932 49.61589776 81.10159523 52.875 75.87512207 C53.55304688 74.78844238 54.23109375 73.7017627 54.9296875 72.58215332 C56.22600548 70.504493 57.52161921 68.42639305 58.81640625 66.34777832 C63.65496634 58.59544798 63.65496634 58.59544798 66.1640625 54.95324707 C67.91871477 52.71236078 67.91871477 52.71236078 67.73828125 50.50793457 C70.41472082 49.61578805 71.99212503 49.37253246 74.73828125 49.38293457 C75.41890625 49.38035645 76.09953125 49.37777832 76.80078125 49.37512207 C78.73828125 49.50793457 78.73828125 49.50793457 81.73828125 50.50793457 C82.43698441 52.16142667 83.09419073 53.83241387 83.73828125 55.50793457 C85.36737013 58.34176652 87.15445911 61.07386758 88.92578125 63.82043457 C90.01755352 65.5309724 91.10866872 67.24192974 92.19921875 68.95324707 C93.06498535 70.30917969 93.06498535 70.30917969 93.94824219 71.69250488 C97.0106507 76.50915722 100.02977731 81.35274551 103.05078125 86.19543457 C104.31635586 88.22280978 105.58198145 90.25015316 106.84765625 92.27746582 C107.80188477 93.80621338 107.80188477 93.80621338 108.77539062 95.36584473 C110.78662144 98.58531495 112.80108489 101.80274231 114.81640625 105.01965332 C115.48373779 106.08546631 116.15106934 107.1512793 116.83862305 108.24938965 C118.10501316 110.27180063 119.3720555 112.29380342 120.63989258 114.31530762 C124.40957147 120.33852494 128.10556672 126.40112316 131.73828125 132.50793457 C137.05387434 127.75406756 140.79393694 121.9282867 144.80078125 116.07043457 C145.50783203 115.04627441 146.21488281 114.02211426 146.94335938 112.96691895 C149.70934554 108.95429112 152.46800099 104.94368036 155.109375 100.84777832 C156.73828125 98.50793457 156.73828125 98.50793457 158.73828125 97.50793457 C164.42256498 96.9488247 164.42256498 96.9488247 166.73828125 97.50793457 C171.3206725 101.31910638 174.40282723 106.15496303 177.67578125 111.07043457 C178.82709285 112.77686058 179.97947246 114.48256639 181.1328125 116.18762207 C181.72529785 117.06515137 182.3177832 117.94268066 182.92822266 118.84680176 C185.8624365 123.16065809 188.86212587 127.4279986 191.86328125 131.69543457 C195.27913891 136.55397634 198.68654961 141.41643309 202.03125 146.32434082 C202.54220215 147.07368896 203.0531543 147.82303711 203.57958984 148.59509277 C204.5399536 150.0069518 205.4974457 151.42076967 206.45166016 152.83679199 C207.52243825 154.41097113 208.62659808 155.96237117 209.73828125 157.50793457 C210.06828125 157.50793457 210.39828125 157.50793457 210.73828125 157.50793457 C210.73828125 110.97793457 210.73828125 64.44793457 210.73828125 16.50793457 C142.09828125 16.50793457 73.45828125 16.50793457 2.73828125 16.50793457 Z M73.73828125 73.50793457 C72.11991851 75.68894028 72.11991851 75.68894028 70.46484375 78.52746582 C69.8112085 79.60270508 69.15757324 80.67794434 68.48413086 81.7857666 C68.13849091 82.36183655 67.79285095 82.93790649 67.43673706 83.53143311 C65.99170577 85.93969535 64.5311874 88.33842195 63.07145691 90.73779297 C62.33464287 91.9492891 61.59865383 93.16128737 60.86347961 94.3737793 C57.85691339 99.32978132 54.78606957 104.24157315 51.67578125 109.13293457 C47.16650503 116.23932558 42.69406797 123.36787801 38.23828125 130.50793457 C33.62783424 137.89215121 29.01017779 145.27158875 24.36328125 152.63293457 C23.88084961 153.3971875 23.39841797 154.16144043 22.90136719 154.94885254 C20.61582768 158.56251828 18.31788148 162.16743778 15.99609375 165.75793457 C15.57118652 166.41519531 15.1462793 167.07245605 14.70849609 167.74963379 C13.91683631 168.97149525 13.1230175 170.1919616 12.32666016 171.4107666 C10.51051221 173.77434832 10.51051221 173.77434832 9.73828125 176.50793457 C52.63828125 176.50793457 95.53828125 176.50793457 139.73828125 176.50793457 C135.65373948 169.50586296 131.59701699 162.57655088 127.23828125 155.75793457 C126.19605464 154.11766522 125.15441706 152.4770215 124.11328125 150.83605957 C123.56800781 149.97689941 123.02273437 149.11773926 122.4609375 148.23254395 C119.36591693 143.33735835 116.30371056 138.42168339 113.23828125 133.50793457 C108.75741814 126.32903913 104.26406624 119.15859808 99.73828125 112.00793457 C95.02775561 104.5639612 90.345851 97.10235448 85.67578125 89.63293457 C84.70995117 88.08895996 84.70995117 88.08895996 83.72460938 86.51379395 C83.11939453 85.54506348 82.51417969 84.57633301 81.890625 83.57824707 C81.35429443 82.71989258 80.81796387 81.86153809 80.26538086 80.97717285 C79.1910312 79.24000699 78.16162903 77.47463541 77.16625977 75.69104004 C76.69502686 74.97061523 76.22379395 74.25019043 75.73828125 73.50793457 C75.07828125 73.50793457 74.41828125 73.50793457 73.73828125 73.50793457 Z M161.73828125 120.50793457 C160.43556362 121.9556211 160.43556362 121.9556211 159.1640625 123.87512207 C158.66406738 124.59151855 158.16407227 125.30791504 157.64892578 126.04602051 C157.12153809 126.81720215 156.59415039 127.58838379 156.05078125 128.38293457 C154.97177184 129.94832672 153.89234627 131.51343209 152.8125 133.07824707 C152.28833496 133.84040527 151.76416992 134.60256348 151.22412109 135.38781738 C148.81758385 138.82166054 146.24690402 142.13625818 143.65234375 145.42980957 C142.4542901 147.52395257 142.4542901 147.52395257 143.51147461 149.84265137 C144.69595001 152.41596838 145.9929592 154.80427411 147.453125 157.23059082 C147.97455078 158.09877441 148.49597656 158.96695801 149.03320312 159.8614502 C149.57525391 160.75541504 150.11730469 161.64937988 150.67578125 162.57043457 C151.21396484 163.4682666 151.75214844 164.36609863 152.30664062 165.2911377 C154.49210927 168.91835052 154.49210927 168.91835052 156.73828125 172.50793457 C157.09196777 173.25454346 157.4456543 174.00115234 157.81005859 174.77038574 C161.1218926 177.75472642 165.15538228 176.9941233 169.4375 176.89855957 C170.38768509 176.89289978 171.33787018 176.88723999 172.31684875 176.88140869 C175.35367069 176.85900605 178.38931556 176.80880227 181.42578125 176.75793457 C183.48370693 176.73787461 185.54165108 176.71962296 187.59960938 176.70324707 C192.64628732 176.65912844 197.69208468 176.59007387 202.73828125 176.50793457 C198.84826353 170.28715024 194.90675986 164.17838709 190.48828125 158.32043457 C186.60616388 153.10091125 182.84195902 147.81880852 179.17578125 142.44543457 C175.53090246 137.11760046 171.88475698 131.79144346 168.17578125 126.50793457 C167.75804443 125.90199463 167.34030762 125.29605469 166.90991211 124.67175293 C165.90314224 123.24680243 164.82690356 121.87137543 163.73828125 120.50793457 C163.07828125 120.50793457 162.41828125 120.50793457 161.73828125 120.50793457 Z " fill="#000000" transform="translate(61.26171875,143.4920654296875)"/>
<path d="M0 0 C1.51307299 -0.01564648 1.51307299 -0.01564648 3.0567131 -0.03160906 C4.16292637 -0.02268617 5.26913963 -0.01376328 6.40887451 -0.00457001 C7.58553303 -0.01080997 8.76219154 -0.01704993 9.97450638 -0.02347898 C13.24160221 -0.0366889 16.50810533 -0.03191393 19.77518654 -0.01953411 C23.29809377 -0.01049711 26.82091984 -0.02444659 30.34381104 -0.0354538 C37.24552856 -0.05325815 44.14707227 -0.04939058 51.04879665 -0.03780323 C56.65699632 -0.02877669 62.26514721 -0.02754153 67.87335205 -0.0318985 C68.67095924 -0.03251143 69.46856642 -0.03312436 70.29034352 -0.03375587 C71.91057048 -0.03503475 73.53079742 -0.0363316 75.15102434 -0.03764623 C90.35073446 -0.04905764 105.55034814 -0.03592956 120.75004244 -0.01444477 C133.79750091 0.00342674 146.84481704 0.00032279 159.89227295 -0.01811981 C175.03687764 -0.03951665 190.18139778 -0.04795895 205.32601547 -0.03567076 C206.94034575 -0.03439653 208.55467604 -0.03313905 210.16900635 -0.0318985 C210.96332731 -0.0312814 211.75764826 -0.03066429 212.57603955 -0.03002849 C218.17874506 -0.02657202 223.78139702 -0.03241031 229.38409424 -0.04181671 C236.21017333 -0.05302492 243.03606839 -0.05002162 249.86212635 -0.02869374 C253.34621118 -0.01816725 256.82998897 -0.01408825 260.31407166 -0.02729034 C264.08751883 -0.03816316 267.86009288 -0.02458076 271.63348389 -0.00457001 C272.73969715 -0.01349289 273.84591042 -0.02241578 274.98564529 -0.03160906 C275.99436062 -0.02117807 277.00307594 -0.01074708 278.0423584 0 C279.3491411 0.00097411 279.3491411 0.00097411 280.68232346 0.00196791 C283.80518652 0.67143763 285.02165302 2.07245733 287.0211792 4.50336456 C287.5524292 6.50336456 287.5524292 6.50336456 287.5211792 8.50336456 C287.53664795 9.49336456 287.53664795 9.49336456 287.5524292 10.50336456 C286.78179413 13.40457894 285.30172121 14.59475439 283.0211792 16.50336456 C280.68232346 17.00476122 280.68232346 17.00476122 278.0423584 17.00672913 C276.52928541 17.02237561 276.52928541 17.02237561 274.98564529 17.03833818 C273.87943203 17.0294153 272.77321877 17.02049241 271.63348389 17.01129913 C269.86849611 17.02065908 269.86849611 17.02065908 268.06785202 17.03020811 C264.80075619 17.04341802 261.53425307 17.03864305 258.26717186 17.02626324 C254.74426463 17.01722624 251.22143856 17.03117572 247.69854736 17.04218292 C240.79682984 17.05998728 233.89528613 17.0561197 226.99356174 17.04453236 C221.38536208 17.03550581 215.77721119 17.03427065 210.16900635 17.03862762 C209.37139916 17.03924056 208.57379198 17.03985349 207.75201488 17.04048499 C206.13178792 17.04176387 204.51156098 17.04306072 202.89133406 17.04437536 C187.69162394 17.05578677 172.49201026 17.04265869 157.29231596 17.02117389 C144.24485749 17.00330239 131.19754135 17.00640634 118.15008545 17.02484894 C103.00548076 17.04624578 87.86096062 17.05468808 72.71634293 17.04239988 C71.10201265 17.04112566 69.48768236 17.03986818 67.87335205 17.03862762 C67.07903109 17.03801052 66.28471014 17.03739342 65.46631885 17.03675762 C59.86361334 17.03330115 54.26096138 17.03913944 48.65826416 17.04854584 C41.83218507 17.05975405 35.00629 17.05675075 28.18023205 17.03542286 C24.69614722 17.02489638 21.21236943 17.02081738 17.72828674 17.03401947 C13.95483957 17.04489229 10.18226551 17.03130988 6.40887451 17.01129913 C5.30266125 17.02022202 4.19644798 17.02914491 3.0567131 17.03833818 C2.04799778 17.0279072 1.03928246 17.01747621 0 17.00672913 C-0.87118847 17.00607972 -1.74237694 17.00543031 -2.63996506 17.00476122 C-5.76282812 16.3352915 -6.97929463 14.93427179 -8.9788208 12.50336456 C-9.5100708 10.50336456 -9.5100708 10.50336456 -9.4788208 8.50336456 C-9.49428955 7.51336456 -9.49428955 7.51336456 -9.5100708 6.50336456 C-8.20999962 1.60897896 -4.7340769 0.00352892 0 0 Z " fill="#000000" transform="translate(176.97882080078125,47.49663543701172)"/>
<path d="M0 0 C2.5 1.4375 2.5 1.4375 4 4 C4.481594 11.13992854 3.21122779 17.01907352 1.2019043 23.84057617 C0.90436249 24.88563828 0.60682068 25.93070038 0.30026245 27.00743103 C-0.68014783 30.43939468 -1.67757599 33.86614256 -2.67578125 37.29296875 C-3.36449523 39.68686749 -4.05232264 42.08102145 -4.73930359 44.47541809 C-6.17876989 49.4830903 -7.62619614 54.48836692 -9.07983398 59.49194336 C-10.94147778 65.90086601 -12.7873887 72.31415082 -14.62791157 78.72916698 C-16.04638084 83.66934356 -17.47101084 88.60772565 -18.89772606 93.5455265 C-19.58048781 95.90978906 -20.26183571 98.27446039 -20.94173622 100.63954735 C-21.89313819 103.9439861 -22.85229049 107.24607455 -23.8137207 110.54760742 C-24.09280777 111.52177612 -24.37189484 112.49594482 -24.65943909 113.49963379 C-26.05084661 118.24668155 -27.46237526 122.71225739 -30 127 C-33.21102274 128.60551137 -36.51699208 128.46807221 -40 128 C-42.5 126.5625 -42.5 126.5625 -44 124 C-44.481594 116.86007146 -43.21122779 110.98092648 -41.2019043 104.15942383 C-40.90436249 103.11436172 -40.60682068 102.06929962 -40.30026245 100.99256897 C-39.31985217 97.56060532 -38.32242401 94.13385744 -37.32421875 90.70703125 C-36.63550477 88.31313251 -35.94767736 85.91897855 -35.26069641 83.52458191 C-33.82123011 78.5169097 -32.37380386 73.51163308 -30.92016602 68.50805664 C-29.05852222 62.09913399 -27.2126113 55.68584918 -25.37208843 49.27083302 C-23.95361916 44.33065644 -22.52898916 39.39227435 -21.10227394 34.4544735 C-20.41951219 32.09021094 -19.73816429 29.72553961 -19.05826378 27.36045265 C-18.10686181 24.0560139 -17.14770951 20.75392545 -16.1862793 17.45239258 C-15.90719223 16.47822388 -15.62810516 15.50405518 -15.34056091 14.50036621 C-13.94915339 9.75331845 -12.53762474 5.28774261 -10 1 C-6.78897726 -0.60551137 -3.48300792 -0.46807221 0 0 Z " fill="#000000" transform="translate(420,280)"/>
<path d="M0 0 C8.24404715 2.1727606 16.25008216 13.55055944 22.18701172 19.50805664 C24.05688073 21.38334485 25.93211219 23.25315387 27.80786133 25.12255859 C28.99893781 26.31429487 30.18970461 27.50634077 31.38012695 28.69873047 C31.94046127 29.25704056 32.50079559 29.81535065 33.07810974 30.39057922 C36.46242495 33.79562237 37.93916125 35.36794005 38.6027832 40.17919922 C38.52078773 43.73338748 37.8121886 45.35936299 35.4152832 47.96044922 C34.77913086 48.65219238 34.14297852 49.34393555 33.48754883 50.05664062 C32.30708984 51.29293213 32.30708984 51.29293213 31.1027832 52.55419922 C30.6286499 53.0524823 30.1545166 53.55076538 29.66601562 54.06414795 C26.28680877 57.60558746 22.86757901 61.10508902 19.42358398 64.58349609 C18.20433469 65.81942056 16.99049229 67.06070119 15.78198242 68.30712891 C14.01558522 70.12838317 12.23320543 71.93254441 10.4465332 73.73388672 C9.91402954 74.28905975 9.38152588 74.84423279 8.83288574 75.41622925 C5.22442742 79.00481225 2.25902471 80.65451873 -2.8972168 81.55419922 C-6.2097168 80.61669922 -6.2097168 80.61669922 -8.8972168 78.55419922 C-10.4597168 75.24169922 -10.4597168 75.24169922 -10.8972168 71.55419922 C-8.97950814 66.67449747 -6.06380474 63.31508097 -2.35424805 59.71826172 C-1.82578781 59.19404633 -1.29732758 58.66983093 -0.75285339 58.12973022 C0.92122708 56.47231767 2.60547579 54.82569913 4.2902832 53.17919922 C5.43355209 52.05099252 6.57613752 50.9220928 7.71801758 49.79248047 C10.50509988 47.03830945 13.30134523 44.29376378 16.1027832 41.55419922 C14.52482405 37.66376289 11.86723939 35.07724554 8.91137695 32.20263672 C8.40606949 31.70253082 7.90076202 31.20242493 7.38014221 30.68716431 C5.77155236 29.09632979 4.15641501 27.51236838 2.5402832 25.92919922 C0.92148083 24.33802146 -0.69583501 22.74540221 -2.31028748 21.14981079 C-3.31362107 20.15872824 -4.31961588 19.17033114 -5.32850647 18.18490601 C-8.72933161 14.83300844 -9.81688916 13.55026188 -10.2097168 8.67919922 C-10.15062307 5.72451269 -9.96286644 4.66361529 -8.3972168 2.05419922 C-5.56539602 0.35510675 -3.31201269 -0.20561216 0 0 Z " fill="#000000" transform="translate(433.897216796875,303.44580078125)"/>
<path d="M0 0 C2.5 1.5 2.5 1.5 4 4 C4.73267975 7.99643501 5.09228064 10.41410074 2.75097656 13.81347656 C1.92291504 14.71791504 1.92291504 14.71791504 1.078125 15.640625 C0.44479248 16.33317383 -0.18854004 17.02572266 -0.84106445 17.73925781 C-4.80772491 21.89296988 -8.85626231 25.95910915 -12.9375 30 C-13.81212891 30.87011719 -14.68675781 31.74023438 -15.58789062 32.63671875 C-17.72297449 34.76013549 -19.86037205 36.88116378 -22 39 C-20.42204085 42.89043633 -17.76445619 45.47695368 -14.80859375 48.3515625 C-14.30328629 48.8516684 -13.79797882 49.35177429 -13.27735901 49.86703491 C-11.66876916 51.45786943 -10.05363181 53.04183084 -8.4375 54.625 C-6.81869762 56.21617776 -5.20138179 57.80879701 -3.58692932 59.40438843 C-2.58359573 60.39547098 -1.57760092 61.38386808 -0.56871033 62.36929321 C2.83211482 65.72119078 3.91967237 67.00393734 4.3125 71.875 C4.25340627 74.82968653 4.06564964 75.89058393 2.5 78.5 C-0.33182078 80.19909247 -2.58520411 80.75981138 -5.8972168 80.55419922 C-14.14126394 78.38143862 -22.14729896 67.00363978 -28.08422852 61.04614258 C-29.95409753 59.17085437 -31.82932899 57.30104535 -33.70507812 55.43164062 C-34.89615461 54.23990435 -36.0869214 53.04785845 -37.27734375 51.85546875 C-37.83767807 51.29715866 -38.39801239 50.73884857 -38.97532654 50.16362 C-42.35964175 46.75857685 -43.83637805 45.18625917 -44.5 40.375 C-44.27925967 31.03032624 -31.33966708 22.18756825 -25.04614258 15.91577148 C-23.17085437 14.04590247 -21.30104535 12.17067101 -19.43164062 10.29492188 C-18.23990435 9.10384539 -17.04785845 7.9130786 -15.85546875 6.72265625 C-15.29715866 6.16232193 -14.73884857 5.60198761 -14.16362 5.02467346 C-9.57570617 0.4646882 -6.54547604 -0.89256491 0 0 Z " fill="#000000" transform="translate(372,304)"/>
<path d="M0 0 C5.82485779 3.51996782 10.54466582 8.98962934 12.5625 15.5 C13.36764105 23.33608208 13.68710392 31.11922577 8.5625 37.5 C3.75801361 42.54521222 -0.59927055 46.10562995 -7.70703125 46.8359375 C-16.22326573 46.92983204 -22.11345494 46.6177288 -28.40234375 40.62890625 C-34.7841668 33.72505269 -35.91792252 28.29832071 -35.7421875 18.9453125 C-35.04689797 11.08319245 -31.38995981 6.95041296 -25.53515625 1.9453125 C-18.47077988 -2.92213491 -7.84396301 -3.47595223 0 0 Z M-16.8125 17.125 C-18.92456506 20.21186432 -19.04945145 21.8282913 -18.4375 25.5 C-16.9375 28 -16.9375 28 -14.4375 29.5 C-10.7657913 30.11195145 -9.14936432 29.98706506 -6.0625 27.875 C-3.95043494 24.78813568 -3.82554855 23.1717087 -4.4375 19.5 C-5.9375 17 -5.9375 17 -8.4375 15.5 C-12.1092087 14.88804855 -13.72563568 15.01293494 -16.8125 17.125 Z " fill="#000000" transform="translate(211.4375,177.5)"/>
<path d="M0 0 C1.051875 -0.00515625 2.10375 -0.0103125 3.1875 -0.015625 C4.280625 -0.00015625 5.37375 0.0153125 6.5 0.03125 C8.1396875 0.00804687 8.1396875 0.00804687 9.8125 -0.015625 C10.864375 -0.01046875 11.91625 -0.0053125 13 0 C14.43859375 0.00676758 14.43859375 0.00676758 15.90625 0.01367188 C19.21298564 0.673525 20.40908706 1.94238555 22.5 4.53125 C23.03125 6.53125 23.03125 6.53125 23 8.53125 C23.0103125 9.19125 23.020625 9.85125 23.03125 10.53125 C22.2561666 13.44921104 20.80895833 14.6243588 18.5 16.53125 C15.90625 17.04882812 15.90625 17.04882812 13 17.0625 C11.948125 17.06765625 10.89625 17.0728125 9.8125 17.078125 C8.719375 17.06265625 7.62625 17.0471875 6.5 17.03125 C4.8603125 17.05445313 4.8603125 17.05445313 3.1875 17.078125 C2.135625 17.07296875 1.08375 17.0678125 0 17.0625 C-0.9590625 17.05798828 -1.918125 17.05347656 -2.90625 17.04882812 C-6.21298564 16.388975 -7.40908706 15.12011445 -9.5 12.53125 C-10.03125 10.53125 -10.03125 10.53125 -10 8.53125 C-10.01546875 7.54125 -10.01546875 7.54125 -10.03125 6.53125 C-8.65240655 1.34030994 -4.94094259 0.02324368 0 0 Z " fill="#000000" transform="translate(393.5,455.46875)"/>
<path d="M0 0 C1.051875 -0.00515625 2.10375 -0.0103125 3.1875 -0.015625 C4.280625 -0.00015625 5.37375 0.0153125 6.5 0.03125 C8.1396875 0.00804687 8.1396875 0.00804687 9.8125 -0.015625 C10.864375 -0.01046875 11.91625 -0.0053125 13 0 C14.43859375 0.00676758 14.43859375 0.00676758 15.90625 0.01367188 C19.21298564 0.673525 20.40908706 1.94238555 22.5 4.53125 C23.03125 6.53125 23.03125 6.53125 23 8.53125 C23.0103125 9.19125 23.020625 9.85125 23.03125 10.53125 C22.2561666 13.44921104 20.80895833 14.6243588 18.5 16.53125 C15.90625 17.04882812 15.90625 17.04882812 13 17.0625 C11.948125 17.06765625 10.89625 17.0728125 9.8125 17.078125 C8.719375 17.06265625 7.62625 17.0471875 6.5 17.03125 C4.8603125 17.05445313 4.8603125 17.05445313 3.1875 17.078125 C2.135625 17.07296875 1.08375 17.0678125 0 17.0625 C-0.9590625 17.05798828 -1.918125 17.05347656 -2.90625 17.04882812 C-6.21298564 16.388975 -7.40908706 15.12011445 -9.5 12.53125 C-10.03125 10.53125 -10.03125 10.53125 -10 8.53125 C-10.01546875 7.54125 -10.01546875 7.54125 -10.03125 6.53125 C-8.65240655 1.34030994 -4.94094259 0.02324368 0 0 Z " fill="#000000" transform="translate(393.5,215.46875)"/>
<path d="M0 0 C0.7115625 -0.01546875 1.423125 -0.0309375 2.15625 -0.046875 C5.60314984 -0.02115187 7.64752229 0.24568064 10.46875 2.28125 C12.08267327 4.61979188 12.54379543 5.69709278 12.5 8.5 C12.5103125 9.16 12.520625 9.82 12.53125 10.5 C11.72167176 13.54782397 10.55457707 14.65682414 8 16.5 C5.16934716 16.90100915 2.81653341 17.06122899 0 17 C-0.7115625 17.01546875 -1.423125 17.0309375 -2.15625 17.046875 C-5.60314984 17.02115187 -7.64752229 16.75431936 -10.46875 14.71875 C-12.08267327 12.38020812 -12.54379543 11.30290722 -12.5 8.5 C-12.51546875 7.51 -12.51546875 7.51 -12.53125 6.5 C-10.82633794 0.08150756 -5.75061521 -0.12501337 0 0 Z " fill="#000000" transform="translate(124,47.5)"/>
<path d="M0 0 C0.7115625 -0.01546875 1.423125 -0.0309375 2.15625 -0.046875 C5.60314984 -0.02115187 7.64752229 0.24568064 10.46875 2.28125 C12.08267327 4.61979188 12.54379543 5.69709278 12.5 8.5 C12.5103125 9.16 12.520625 9.82 12.53125 10.5 C11.72167176 13.54782397 10.55457707 14.65682414 8 16.5 C5.16934716 16.90100915 2.81653341 17.06122899 0 17 C-0.7115625 17.01546875 -1.423125 17.0309375 -2.15625 17.046875 C-5.60314984 17.02115187 -7.64752229 16.75431936 -10.46875 14.71875 C-12.08267327 12.38020812 -12.54379543 11.30290722 -12.5 8.5 C-12.51546875 7.51 -12.51546875 7.51 -12.53125 6.5 C-10.82633794 0.08150756 -5.75061521 -0.12501337 0 0 Z " fill="#000000" transform="translate(92,47.5)"/>
<path d="M0 0 C0.7115625 -0.01546875 1.423125 -0.0309375 2.15625 -0.046875 C5.60314984 -0.02115187 7.64752229 0.24568064 10.46875 2.28125 C12.08267327 4.61979188 12.54379543 5.69709278 12.5 8.5 C12.5103125 9.16 12.520625 9.82 12.53125 10.5 C11.72167176 13.54782397 10.55457707 14.65682414 8 16.5 C5.16934716 16.90100915 2.81653341 17.06122899 0 17 C-0.7115625 17.01546875 -1.423125 17.0309375 -2.15625 17.046875 C-5.60314984 17.02115187 -7.64752229 16.75431936 -10.46875 14.71875 C-12.08267327 12.38020812 -12.54379543 11.30290722 -12.5 8.5 C-12.51546875 7.51 -12.51546875 7.51 -12.53125 6.5 C-10.82633794 0.08150756 -5.75061521 -0.12501337 0 0 Z " fill="#000000" transform="translate(60,47.5)"/>
</svg>
