<?xml version="1.0" encoding="UTF-8"?>
<svg version="1.1" xmlns="http://www.w3.org/2000/svg" width="512" height="512">
<path d="M0 0 C1.82780408 -0.00935994 1.82780408 -0.00935994 3.69253349 -0.01890898 C7.04443432 -0.0320223 10.39542752 -0.02741396 13.74727154 -0.0149641 C17.37380142 -0.00586436 21.0002555 -0.01990758 24.62677002 -0.03088379 C31.71904143 -0.04862139 38.81114301 -0.04485036 45.90342093 -0.03323323 C51.67014548 -0.02418036 57.43682262 -0.0229829 63.20355225 -0.02732849 C64.02594355 -0.02794142 64.84833486 -0.02855436 65.69564712 -0.02918586 C67.36659322 -0.03046483 69.0375393 -0.03176168 70.70848536 -0.03307623 C86.35767074 -0.04446808 102.00676222 -0.03139025 117.65593219 -0.00987476 C131.06835726 0.00799496 144.48064383 0.00489046 157.89306641 -0.0135498 C173.48825674 -0.0349812 189.08336488 -0.04336958 204.67856789 -0.03110075 C206.34318668 -0.02982662 208.00780549 -0.02856914 209.67242432 -0.02732849 C210.49133648 -0.02671139 211.31024864 -0.02609429 212.15397632 -0.02545848 C217.91026788 -0.02201239 223.66650708 -0.02781793 229.42279053 -0.0372467 C236.44283209 -0.04849333 243.46269487 -0.0453709 250.48271608 -0.02412373 C254.0608761 -0.01364893 257.63873859 -0.00942987 261.21689606 -0.02272034 C265.10342256 -0.0369373 268.98946743 -0.0199023 272.87597656 0 C273.99593458 -0.00892289 275.1158926 -0.01784577 276.26978874 -0.02703905 C287.795109 0.08711206 297.05891543 3.50900869 305.43798828 11.50793457 C317.13665566 23.76257822 317.02270851 36.98643338 316.95556641 52.98034668 C316.96099268 55.1527961 316.96811817 57.32524184 316.97680664 59.49768066 C316.99497502 65.37117003 316.98800122 71.24437702 316.9752903 77.11787105 C316.96513809 83.26991819 316.9745613 89.42194174 316.98083496 95.57398987 C316.98810104 105.89584686 316.97854687 116.21758915 316.95947266 126.53942871 C316.93766563 138.47811027 316.94478735 150.41651898 316.96677828 162.35519403 C316.98491372 172.61104354 316.98750089 182.86681083 316.9770236 193.12267119 C316.97078368 199.24613743 316.96996769 205.36947524 316.98316956 211.49293327 C316.99470175 217.24275673 316.98675035 222.99222685 316.96359253 228.74201202 C316.95829312 230.85439784 316.95984016 232.96681328 316.96864319 235.07918739 C316.97953243 237.95683709 316.96591566 240.83334577 316.94592285 243.71092224 C316.95930718 244.97203958 316.95930718 244.97203958 316.9729619 246.25863403 C316.92335101 249.92564415 316.77993354 252.05661963 314.53124237 255.02454472 C312.26496057 256.6305511 311.1853797 257.05086256 308.43798828 257.00793457 C307.44798828 257.02340332 307.44798828 257.02340332 306.43798828 257.03918457 C304.43798828 256.50793457 304.43798828 256.50793457 300.43798828 252.50793457 C300.43798828 201.02793457 300.43798828 149.54793457 300.43798828 96.50793457 C192.19798828 96.50793457 83.95798828 96.50793457 -27.56201172 96.50793457 C-27.44241821 157.42885739 -27.44241821 157.42885739 -27.30419922 218.34973145 C-27.28419119 226.56188929 -27.26430674 234.77404741 -27.24462891 242.98620605 C-27.24215747 244.01546595 -27.23968603 245.04472585 -27.2371397 246.10517544 C-27.19742075 262.72164802 -27.16467839 279.3381274 -27.1345119 295.95461976 C-27.10339757 313.00770078 -27.06478822 330.06075295 -27.01922166 347.11380154 C-26.99134107 357.63637173 -26.96930614 368.15892083 -26.95474921 378.68151803 C-26.94420687 385.89731268 -26.92638411 393.11306648 -26.90284468 400.32883035 C-26.88947862 404.49187964 -26.87931457 408.65487167 -26.87779808 412.81794357 C-26.8763377 416.63219621 -26.86569831 420.44631103 -26.84787731 424.2605213 C-26.84075914 426.28788554 -26.84335841 428.31527678 -26.84634745 430.34265131 C-26.78560499 440.23823985 -26.60165064 449.51821002 -19.14404297 456.91418457 C-11.20801101 463.93216656 -2.32060373 463.65624845 7.72883606 463.64164734 C8.87100718 463.6439129 10.01317829 463.64617845 11.18996066 463.64851266 C15.01979849 463.65484622 18.84960087 463.6540237 22.67944336 463.65319824 C25.42431268 463.65564672 28.16917952 463.65956441 30.91404724 463.66337585 C37.59786926 463.67167532 44.28168247 463.67443038 50.96550921 463.67498823 C56.3995964 463.67546373 61.83368068 463.67752015 67.26776695 463.68068886 C82.68123652 463.68949352 98.09469914 463.69410853 113.50817124 463.69335838 C114.33877307 463.69331843 115.1693749 463.69327847 116.02514648 463.6932373 C116.85676482 463.69319642 117.68838315 463.69315554 118.54520204 463.69311342 C132.02146017 463.69270701 145.49769036 463.70227589 158.97394041 463.71637567 C172.81795773 463.73074571 186.66196143 463.73764551 200.50598639 463.7367819 C208.27565325 463.73645014 216.04529081 463.73918772 223.81495094 463.74995995 C230.43034584 463.75907321 237.04569815 463.76123341 243.66109661 463.75445052 C247.03437052 463.75118946 250.40749622 463.75220428 253.78077316 463.75980377 C257.44265151 463.76751873 261.10431585 463.76288191 264.76618958 463.75517273 C265.82534681 463.76031629 266.88450404 463.76545986 267.97575694 463.77075928 C277.3716511 463.72709406 285.89590354 463.09620335 292.84423828 456.08996582 C297.84089031 450.43968198 299.00762731 444.34235025 300.55908203 437.15246582 C301.43798828 434.50793457 301.43798828 434.50793457 304.43798828 432.50793457 C311.52567242 431.83291703 311.52567242 431.83291703 314.66064453 434.15246582 C318.0673552 438.66729337 317.02967904 444.12171873 316.43798828 449.50793457 C314.06946412 460.20133062 307.83669331 468.56197872 298.989748 474.89370775 C290.73957034 480.11271718 282.44543928 481.0921106 272.87597656 481.01586914 C271.04817248 481.02522908 271.04817248 481.02522908 269.18344307 481.03477812 C265.83154224 481.04789144 262.48054905 481.0432831 259.12870502 481.03083324 C255.50217514 481.0217335 251.87572106 481.03577672 248.24920654 481.04675293 C241.15693514 481.06449053 234.06483356 481.0607195 226.97255564 481.04910237 C221.20583108 481.0400495 215.43915395 481.03885204 209.67242432 481.04319763 C208.85003301 481.04381056 208.0276417 481.0444235 207.18032944 481.045055 C205.50938335 481.04633397 203.83843727 481.04763083 202.1674912 481.04894537 C186.51830582 481.06033722 170.86921435 481.04725939 155.22004437 481.0257439 C141.8076193 481.00787418 128.39533273 481.01097868 114.98291016 481.02941895 C99.38771982 481.05085034 83.79261168 481.05923872 68.19740868 481.04696989 C66.53278988 481.04569576 64.86817107 481.04443828 63.20355225 481.04319763 C62.38464008 481.04258053 61.56572792 481.04196343 60.72200024 481.04132763 C54.96570868 481.03788153 49.20946948 481.04368707 43.45318604 481.05311584 C36.43314447 481.06436247 29.4132817 481.06124004 22.39326048 481.03999287 C18.81510046 481.02951807 15.23723797 481.02529902 11.65908051 481.03858948 C7.77255401 481.05280644 3.88650913 481.03577144 0 481.01586914 C-1.11995802 481.02479203 -2.23991604 481.03371491 -3.39381218 481.04290819 C-14.91913244 480.92875708 -24.18293887 477.50686045 -32.56201172 469.50793457 C-43.00119518 458.5726315 -44.15428252 446.82200346 -44.06994629 432.39025879 C-44.07456097 430.66443291 -44.08091768 428.93861096 -44.08885527 427.21279716 C-44.10549381 422.49292088 -44.0973272 417.77336972 -44.08491039 413.05349255 C-44.07583976 407.95456469 -44.08983961 402.85569176 -44.10083008 397.7567749 C-44.11859839 387.77690318 -44.11478282 377.79715193 -44.10317951 367.81727552 C-44.09413884 359.7050169 -44.09292395 351.592792 -44.09727478 343.48052979 C-44.09788771 342.32509513 -44.09850064 341.16966047 -44.09913215 339.97921264 C-44.10041108 337.63182655 -44.10170793 335.28444047 -44.10302252 332.9370544 C-44.11442337 310.93566476 -44.10132235 288.93434183 -44.07982105 266.93296313 C-44.06195054 248.06273792 -44.06505478 229.19261114 -44.08349609 210.3223877 C-44.10491152 188.39867851 -44.11332478 166.47502777 -44.10104704 144.55130959 C-44.09977287 142.21265285 -44.09851539 139.87399611 -44.09727478 137.53533936 C-44.09665768 136.38473396 -44.09604058 135.23412857 -44.09540477 134.04865634 C-44.0919539 125.94797096 -44.09777458 117.8473227 -44.10719299 109.74664307 C-44.11842179 99.87199209 -44.11535431 89.99746827 -44.09407002 80.12283182 C-44.08357155 75.08650878 -44.07941734 70.05039761 -44.09266663 65.01407623 C-44.10462116 60.40007034 -44.09797757 55.7864719 -44.07675642 51.17250276 C-44.07230332 49.50710585 -44.07452745 47.84167423 -44.08425957 46.17629981 C-44.1576003 32.57873185 -42.2808761 21.68868558 -32.56201172 11.50793457 C-23.0668093 2.44351639 -12.86222292 -0.10247541 0 0 Z M-1.56201172 42.50793457 C-3.17631095 45.73653304 -3.15771828 49.01787111 -2.56201172 52.50793457 C-0.82599067 55.53301602 1.27378965 57.92583526 4.43798828 59.50793457 C9.56169226 60.11522302 9.56169226 60.11522302 14.26220703 58.46105957 C18.06551572 55.33000642 19.32462195 53.64159789 19.81298828 48.75793457 C19.78857604 45.40735389 19.19400182 43.65898925 17.06298828 41.07043457 C13.53312968 37.62462023 11.50962308 37.11237621 6.54345703 37.14855957 C2.82205375 37.78375271 1.03485979 39.84772473 -1.56201172 42.50793457 Z M38.43798828 42.50793457 C36.82368905 45.73653304 36.84228172 49.01787111 37.43798828 52.50793457 C39.17400933 55.53301602 41.27378965 57.92583526 44.43798828 59.50793457 C49.56169226 60.11522302 49.56169226 60.11522302 54.26220703 58.46105957 C58.06551572 55.33000642 59.32462195 53.64159789 59.81298828 48.75793457 C59.78857604 45.40735389 59.19400182 43.65898925 57.06298828 41.07043457 C53.53312968 37.62462023 51.50962308 37.11237621 46.54345703 37.14855957 C42.82205375 37.78375271 41.03485979 39.84772473 38.43798828 42.50793457 Z M78.43798828 42.50793457 C76.82368905 45.73653304 76.84228172 49.01787111 77.43798828 52.50793457 C79.17400933 55.53301602 81.27378965 57.92583526 84.43798828 59.50793457 C89.56169226 60.11522302 89.56169226 60.11522302 94.26220703 58.46105957 C98.06551572 55.33000642 99.32462195 53.64159789 99.81298828 48.75793457 C99.78857604 45.40735389 99.19400182 43.65898925 97.06298828 41.07043457 C93.53312968 37.62462023 91.50962308 37.11237621 86.54345703 37.14855957 C82.82205375 37.78375271 81.03485979 39.84772473 78.43798828 42.50793457 Z " fill="#000000" transform="translate(59.56201171875,15.4920654296875)"/>
<path d="M0 0 C0.70916571 -0.00453111 1.41833142 -0.00906223 2.148987 -0.01373065 C4.51945057 -0.02636598 6.88968414 -0.02475486 9.26017761 -0.02310181 C10.96220189 -0.02908763 12.66422346 -0.0358933 14.36624146 -0.04345703 C18.98618443 -0.06111944 23.6060533 -0.06581253 28.22602677 -0.0670886 C31.11382393 -0.0685107 34.00160228 -0.07278144 36.88939476 -0.07808304 C46.96807933 -0.0965846 57.046711 -0.10475355 67.12541199 -0.10317993 C76.51340452 -0.10197872 85.90116708 -0.1230767 95.28910142 -0.15466726 C103.35466428 -0.18083875 111.42015207 -0.19154685 119.48575705 -0.19026911 C124.30050122 -0.18975971 129.11504102 -0.19543105 133.92974281 -0.21662521 C138.45982406 -0.23602211 142.98950631 -0.23612219 147.51960182 -0.22159195 C149.17879826 -0.2195045 150.83801977 -0.22420096 152.49717331 -0.23631287 C169.57438671 -0.35286679 169.57438671 -0.35286679 177.08903503 6.23226929 C177.62786316 6.88324585 178.16669128 7.53422241 178.72184753 8.20492554 C179.27614441 8.85332397 179.83044128 9.50172241 180.40153503 10.16976929 C184.30931746 15.84133459 184.14343208 21.13596744 184.13737488 27.80575562 C184.1440921 28.86652817 184.15080933 29.92730072 184.1577301 31.0202179 C184.17672273 34.52584523 184.18063504 38.03128121 184.18278503 41.53695679 C184.1892123 43.97687356 184.19594061 46.41678956 184.20295715 48.85670471 C184.21493326 53.97190131 184.21863765 59.08703036 184.217453 64.20223999 C184.21724985 70.74926511 184.24454709 77.29585597 184.27899742 83.84277821 C184.30126111 88.88289877 184.30529069 93.92291476 184.30423355 98.96307945 C184.30659049 101.37635481 184.31541916 103.78963301 184.33089828 106.20285988 C184.35054563 109.58251767 184.34472417 112.96123822 184.33268738 116.34091187 C184.34392639 117.33287567 184.35516541 118.32483948 184.366745 119.34686279 C184.30098264 126.63199759 182.72804427 131.97953901 177.88200378 137.50961304 C177.23102722 138.04844116 176.58005066 138.58726929 175.90934753 139.14242554 C175.2609491 139.69672241 174.61255066 140.25101929 173.94450378 140.82211304 C169.28464731 144.03281489 165.29945611 144.52003503 159.69369507 144.53485107 C158.98452936 144.53938219 158.27536365 144.5439133 157.54470807 144.54858172 C155.1742445 144.56121705 152.80401093 144.55960593 150.43351746 144.55795288 C148.73149318 144.56393871 147.02947161 144.57074438 145.32745361 144.57830811 C140.70751064 144.59597051 136.08764177 144.60066361 131.46766829 144.60193968 C128.57987114 144.60336178 125.69209279 144.60763251 122.80430031 144.61293411 C112.72561574 144.63143568 102.64698407 144.63960463 92.56828308 144.63803101 C83.18029055 144.6368298 73.79252799 144.65792778 64.40459365 144.68951833 C56.33903079 144.71568982 48.273543 144.72639792 40.20793802 144.72512019 C35.39319385 144.72461078 30.57865405 144.73028212 25.76395226 144.75147629 C21.23387101 144.77087319 16.70418876 144.77097326 12.17409325 144.75644302 C10.51489681 144.75435558 8.8556753 144.75905203 7.19652176 144.77116394 C-9.88069164 144.88771786 -9.88069164 144.88771786 -17.39533997 138.30258179 C-18.20358215 137.32611694 -18.20358215 137.32611694 -19.02815247 136.32992554 C-19.58244934 135.6815271 -20.13674622 135.03312866 -20.70783997 134.36508179 C-24.61562239 128.69351649 -24.44973701 123.39888363 -24.44367981 116.72909546 C-24.45039703 115.66832291 -24.45711426 114.60755035 -24.46403503 113.51463318 C-24.48302766 110.00900585 -24.48693997 106.50356986 -24.48908997 102.99789429 C-24.49551723 100.55797751 -24.50224554 98.11806151 -24.50926208 95.67814636 C-24.52123819 90.56294976 -24.52494258 85.44782072 -24.52375793 80.33261108 C-24.52355478 73.78558597 -24.55085202 67.23899511 -24.58530235 60.69207287 C-24.60756604 55.65195231 -24.61159562 50.61193632 -24.61053848 45.57177162 C-24.61289542 43.15849626 -24.62172409 40.74521806 -24.63720322 38.3319912 C-24.65685057 34.9523334 -24.65102911 31.57361286 -24.63899231 28.19393921 C-24.65023132 27.2019754 -24.66147034 26.2100116 -24.67304993 25.18798828 C-24.60728757 17.90285348 -23.0343492 12.55531207 -18.18830872 7.02523804 C-17.53733215 6.48640991 -16.88635559 5.94758179 -16.21565247 5.39242554 C-15.56725403 4.83812866 -14.91885559 4.28383179 -14.25080872 3.71273804 C-9.59095225 0.50203619 -5.60576104 0.01481604 0 0 Z M89.84684753 35.26742554 C88.04424139 37.86054047 86.68389604 40.64043583 85.29216003 43.47055054 C84.86839081 44.30435242 84.44462158 45.1381543 84.00801086 45.9972229 C83.09121622 47.80332558 82.18016003 49.61235014 81.2742157 51.42391968 C79.83021549 54.30055878 78.36148335 57.16323033 76.88493347 60.02328491 C74.32128969 64.99344427 71.78675736 69.97764488 69.26579285 74.96957397 C68.2241752 77.02579704 67.17683665 79.07913072 66.12419128 81.12973022 C64.57816723 84.1429577 63.05053394 87.16488613 61.52653503 90.18930054 C61.05480865 91.09976135 60.58308228 92.01022217 60.09706116 92.94827271 C57.63202479 97.89388273 56.10827917 101.60232247 56.84684753 107.26742554 C58.32677909 109.83081242 58.32677909 109.83081242 60.84684753 111.26742554 C63.80376463 112.01757749 63.80376463 112.01757749 66.84684753 111.26742554 C70.6740448 107.94550796 72.98836704 104.6209527 75.26017761 100.11947632 C75.56326843 99.52526886 75.86635925 98.9310614 76.17863464 98.31884766 C77.16813387 96.37180147 78.14284953 94.4178123 79.11637878 92.46273804 C79.80379479 91.09636404 80.49168406 89.73022804 81.18002319 88.36431885 C82.61633693 85.50803995 84.0449974 82.64808943 85.46867371 79.78549194 C87.28938599 76.12676603 89.13167468 72.47940172 90.98021412 68.83467293 C92.40473599 66.01877941 93.81615103 63.19646961 95.22389793 60.37215805 C95.89773224 59.02484817 96.5759148 57.67970352 97.25860023 56.33685684 C98.21284369 54.45573199 99.14866693 52.56647332 100.08049011 50.67416382 C100.61612076 49.60336578 101.1517514 48.53256775 101.70361328 47.42932129 C103.00781523 43.82222975 103.13663926 41.07635714 102.84684753 37.26742554 C101.39757276 34.36887599 100.48121772 33.51783482 97.47184753 32.32992554 C93.9001667 32.24488552 92.68859009 33.08065513 89.84684753 35.26742554 Z M18.90934753 58.07992554 C17.61674011 59.36673218 17.61674011 59.36673218 16.29801941 60.67953491 C15.48010925 61.49873413 14.6621991 62.31793335 13.81950378 63.16195679 C13.07966248 63.90292603 12.33982117 64.64389526 11.57756042 65.40731812 C9.49642413 67.6440479 8.91959386 68.8855073 8.34684753 71.89242554 C9.58191132 80.2291061 19.91008173 87.48217441 25.65934753 93.20492554 C26.51721863 94.06666382 27.37508972 94.9284021 28.25895691 95.81625366 C29.07815613 96.63416382 29.89735535 97.45207397 30.74137878 98.29476929 C31.48234802 99.0346106 32.22331726 99.7744519 32.98674011 100.53671265 C35.37672976 102.7604476 36.4472607 103.22399219 39.72184753 103.57992554 C42.8920952 103.51527471 42.8920952 103.51527471 45.22184753 101.64242554 C46.99730156 99.34281716 46.99730156 99.34281716 47.53434753 96.51742554 C46.46938684 91.48306591 43.41141753 88.84972971 39.84684753 85.26742554 C39.09975525 84.50994019 39.09975525 84.50994019 38.33757019 83.7371521 C34.86723254 80.21996021 31.36658285 76.73514506 27.84684753 73.26742554 C29.26605506 70.02647489 30.97993002 67.90907049 33.50700378 65.44711304 C34.21792175 64.7471521 34.92883972 64.04719116 35.66130066 63.32601929 C36.40315613 62.60543335 37.1450116 61.88484741 37.90934753 61.14242554 C39.38157947 59.70454992 40.85173909 58.26454846 42.31950378 56.82211304 C42.97184998 56.18773315 43.62419617 55.55335327 44.29631042 54.89974976 C46.43086436 52.65260323 46.82039472 51.51079142 47.15934753 48.39242554 C47.0946967 45.22217787 47.0946967 45.22217787 45.22184753 42.89242554 C42.92223916 41.11697151 42.92223916 41.11697151 40.09684753 40.57992554 C31.77780124 42.33972379 24.71649726 52.2458701 18.90934753 58.07992554 Z M114.47184753 42.89242554 C112.6963935 45.19203391 112.6963935 45.19203391 112.15934753 48.01742554 C113.22430822 53.05178516 116.28227754 55.68512136 119.84684753 59.26742554 C120.59393982 60.02491089 120.59393982 60.02491089 121.35612488 60.79769897 C124.82646253 64.31489087 128.32711222 67.79970602 131.84684753 71.26742554 C130.42764001 74.50837619 128.71376505 76.62578058 126.18669128 79.08773804 C125.47577332 79.78769897 124.76485535 80.48765991 124.03239441 81.20883179 C123.29053894 81.92941772 122.54868347 82.65000366 121.78434753 83.39242554 C120.3121156 84.83030115 118.84195598 86.27030262 117.37419128 87.71273804 C116.72184509 88.34711792 116.0694989 88.9814978 115.39738464 89.63510132 C113.26283071 91.88224785 112.87330035 93.02405966 112.53434753 96.14242554 C112.59899836 99.31267321 112.59899836 99.31267321 114.47184753 101.64242554 C116.77145591 103.41787957 116.77145591 103.41787957 119.59684753 103.95492554 C127.91589382 102.19512728 134.97719781 92.28898098 140.78434753 86.45492554 C141.64608582 85.59705444 142.5078241 84.73918335 143.39567566 83.85531616 C144.21358582 83.03611694 145.03149597 82.21691772 145.87419128 81.37289429 C146.98395325 80.26144043 146.98395325 80.26144043 148.11613464 79.12753296 C150.19727094 76.89080318 150.7741012 75.64934377 151.34684753 72.64242554 C150.11178375 64.30574497 139.78361334 57.05267666 134.03434753 51.32992554 C132.74754089 50.03731812 132.74754089 50.03731812 131.43473816 48.71859741 C130.61553894 47.90068726 129.79633972 47.0827771 128.95231628 46.24008179 C128.21134705 45.50024048 127.47037781 44.76039917 126.70695496 43.99813843 C124.31696531 41.77440347 123.24643437 41.31085889 119.97184753 40.95492554 C116.80159987 41.01957637 116.80159987 41.01957637 114.47184753 42.89242554 Z " fill="#000000" transform="translate(312.1531524658203,287.7325744628906)"/>
<path d="M0 0 C1.0094165 -0.0112793 2.01883301 -0.02255859 3.05883789 -0.03417969 C4.16026123 -0.02608276 5.26168457 -0.01798584 6.39648438 -0.00964355 C7.56107178 -0.01665283 8.72565918 -0.02366211 9.92553711 -0.03088379 C13.78067771 -0.04850975 17.63508612 -0.03682384 21.49023438 -0.02331543 C24.1653739 -0.026009 26.84049107 -0.02988396 29.515625 -0.03491211 C35.12442987 -0.0421874 40.733024 -0.03260414 46.34179688 -0.0135498 C52.82441344 0.008219 59.30652679 0.00116752 65.78913116 -0.02085543 C71.35700027 -0.03901302 76.92471797 -0.04156609 82.49260712 -0.03110075 C85.81719107 -0.02486765 89.14148689 -0.02559741 92.46606445 -0.0372467 C96.17238595 -0.04738291 99.87773545 -0.03195028 103.58398438 -0.00964355 C104.68540771 -0.01774048 105.78683105 -0.0258374 106.92163086 -0.03417969 C108.43575562 -0.01726074 108.43575562 -0.01726074 109.98046875 0 C110.85650757 0.0015081 111.73254639 0.0030162 112.63513184 0.00457001 C115.76922829 0.67443175 116.98468568 2.06729702 118.99023438 4.50793457 C119.52148438 6.50793457 119.52148438 6.50793457 119.49023438 8.50793457 C119.50570312 9.49793457 119.50570312 9.49793457 119.52148438 10.50793457 C118.75060311 13.41007581 117.27232168 14.5993654 114.99023438 16.50793457 C112.63513184 17.01129913 112.63513184 17.01129913 109.98046875 17.01586914 C108.97105225 17.02714844 107.96163574 17.03842773 106.92163086 17.05004883 C105.82020752 17.0419519 104.71878418 17.03385498 103.58398438 17.0255127 C102.41939697 17.03252197 101.25480957 17.03953125 100.05493164 17.04675293 C96.19979104 17.06437889 92.34538263 17.05269298 88.49023438 17.03918457 C85.81509485 17.04187814 83.13997768 17.0457531 80.46484375 17.05078125 C74.85603888 17.05805654 69.24744475 17.04847328 63.63867188 17.02941895 C57.15605531 17.00765014 50.67394196 17.01470162 44.19133759 17.03672457 C38.62346848 17.05488216 33.05575078 17.05743523 27.48786163 17.04696989 C24.16327768 17.04073679 20.83898186 17.04146655 17.5144043 17.05311584 C13.8080828 17.06325205 10.1027333 17.04781942 6.39648438 17.0255127 C5.29506104 17.03360962 4.1936377 17.04170654 3.05883789 17.05004883 C1.54471313 17.03312988 1.54471313 17.03312988 0 17.01586914 C-0.87603882 17.01436104 -1.75207764 17.01285294 -2.65466309 17.01129913 C-5.78875954 16.34143739 -7.00421693 14.94857212 -9.00976562 12.50793457 C-9.54101562 10.50793457 -9.54101562 10.50793457 -9.50976562 8.50793457 C-9.52523437 7.51793457 -9.52523437 7.51793457 -9.54101562 6.50793457 C-8.23625145 1.59588121 -4.74608273 0.00817039 0 0 Z " fill="#000000" transform="translate(113.009765625,359.4920654296875)"/>
<path d="M0 0 C1.0094165 -0.0112793 2.01883301 -0.02255859 3.05883789 -0.03417969 C4.16026123 -0.02608276 5.26168457 -0.01798584 6.39648438 -0.00964355 C7.56107178 -0.01665283 8.72565918 -0.02366211 9.92553711 -0.03088379 C13.78067771 -0.04850975 17.63508612 -0.03682384 21.49023438 -0.02331543 C24.1653739 -0.026009 26.84049107 -0.02988396 29.515625 -0.03491211 C35.12442987 -0.0421874 40.733024 -0.03260414 46.34179688 -0.0135498 C52.82441344 0.008219 59.30652679 0.00116752 65.78913116 -0.02085543 C71.35700027 -0.03901302 76.92471797 -0.04156609 82.49260712 -0.03110075 C85.81719107 -0.02486765 89.14148689 -0.02559741 92.46606445 -0.0372467 C96.17238595 -0.04738291 99.87773545 -0.03195028 103.58398438 -0.00964355 C104.68540771 -0.01774048 105.78683105 -0.0258374 106.92163086 -0.03417969 C108.43575562 -0.01726074 108.43575562 -0.01726074 109.98046875 0 C110.85650757 0.0015081 111.73254639 0.0030162 112.63513184 0.00457001 C115.76922829 0.67443175 116.98468568 2.06729702 118.99023438 4.50793457 C119.52148438 6.50793457 119.52148438 6.50793457 119.49023438 8.50793457 C119.50570312 9.49793457 119.50570312 9.49793457 119.52148438 10.50793457 C118.75060311 13.41007581 117.27232168 14.5993654 114.99023438 16.50793457 C112.63513184 17.01129913 112.63513184 17.01129913 109.98046875 17.01586914 C108.97105225 17.02714844 107.96163574 17.03842773 106.92163086 17.05004883 C105.82020752 17.0419519 104.71878418 17.03385498 103.58398438 17.0255127 C102.41939697 17.03252197 101.25480957 17.03953125 100.05493164 17.04675293 C96.19979104 17.06437889 92.34538263 17.05269298 88.49023438 17.03918457 C85.81509485 17.04187814 83.13997768 17.0457531 80.46484375 17.05078125 C74.85603888 17.05805654 69.24744475 17.04847328 63.63867188 17.02941895 C57.15605531 17.00765014 50.67394196 17.01470162 44.19133759 17.03672457 C38.62346848 17.05488216 33.05575078 17.05743523 27.48786163 17.04696989 C24.16327768 17.04073679 20.83898186 17.04146655 17.5144043 17.05311584 C13.8080828 17.06325205 10.1027333 17.04781942 6.39648438 17.0255127 C5.29506104 17.03360962 4.1936377 17.04170654 3.05883789 17.05004883 C1.54471313 17.03312988 1.54471313 17.03312988 0 17.01586914 C-0.87603882 17.01436104 -1.75207764 17.01285294 -2.65466309 17.01129913 C-5.78875954 16.34143739 -7.00421693 14.94857212 -9.00976562 12.50793457 C-9.54101562 10.50793457 -9.54101562 10.50793457 -9.50976562 8.50793457 C-9.52523437 7.51793457 -9.52523437 7.51793457 -9.54101562 6.50793457 C-8.23625145 1.59588121 -4.74608273 0.00817039 0 0 Z " fill="#000000" transform="translate(113.009765625,199.4920654296875)"/>
<path d="M0 0 C1.08655884 -0.00700928 2.17311768 -0.01401855 3.29260254 -0.02124023 C6.88803585 -0.03886056 10.48268354 -0.02718245 14.078125 -0.01367188 C16.57389477 -0.01636561 19.06966352 -0.02024703 21.56542969 -0.02526855 C26.79760775 -0.03116908 32.02958108 -0.02296334 37.26171875 -0.00390625 C43.30809512 0.01786244 49.35393196 0.01081088 55.40029526 -0.01121187 C61.22025466 -0.03156034 67.0400092 -0.02939482 72.85998535 -0.01768494 C75.33516515 -0.01501343 77.81035869 -0.01830224 80.28552246 -0.02760315 C83.74280459 -0.03774296 87.19904557 -0.02230206 90.65625 0 C91.68286743 -0.00809692 92.70948486 -0.01619385 93.76721191 -0.02453613 C100.6940559 0.05839525 100.6940559 0.05839525 103.96191406 2.42492676 C105.43490798 4.68113965 105.86988874 5.84469852 105.828125 8.51757812 C105.84359375 9.50757813 105.84359375 9.50757813 105.859375 10.51757812 C105.02797664 13.64754841 103.97968298 14.59736152 101.328125 16.51757812 C97.77817743 17.13424766 94.25157639 17.06351256 90.65625 17.03515625 C89.56969116 17.04216553 88.48313232 17.0491748 87.36364746 17.05639648 C83.76821415 17.07401681 80.17356646 17.0623387 76.578125 17.04882812 C74.08235523 17.05152186 71.58658648 17.05540328 69.09082031 17.0604248 C63.85864225 17.06632533 58.62666892 17.05811959 53.39453125 17.0390625 C47.34815488 17.01729381 41.30231804 17.02434537 35.25595474 17.04636812 C29.43599534 17.06671659 23.6162408 17.06455107 17.79626465 17.05284119 C15.32108485 17.05016968 12.84589131 17.05345849 10.37072754 17.0627594 C6.91344541 17.07289921 3.45720443 17.05745831 0 17.03515625 C-1.53992615 17.04730164 -1.53992615 17.04730164 -3.11096191 17.05969238 C-10.0378059 16.976761 -10.0378059 16.976761 -13.30566406 14.61022949 C-14.77865798 12.3540166 -15.21363874 11.19045773 -15.171875 8.51757812 C-15.18734375 7.52757812 -15.18734375 7.52757812 -15.203125 6.51757812 C-13.20246348 -1.01432405 -6.36010951 -0.05016214 0 0 Z " fill="#000000" transform="translate(158.671875,239.482421875)"/>
<path d="M0 0 C0.85247314 -0.00700928 1.70494629 -0.01401855 2.58325195 -0.02124023 C5.3995832 -0.03883756 8.21490864 -0.02719147 11.03125 -0.01367188 C12.98893425 -0.01636629 14.9466172 -0.02024829 16.90429688 -0.02526855 C21.00664007 -0.03116595 25.10863482 -0.02259281 29.2109375 -0.00390625 C34.47045628 0.01888337 39.72915864 0.00576159 44.98864746 -0.01819611 C49.0309871 -0.03264751 53.07313305 -0.0280511 57.11547852 -0.01768494 C59.05476986 -0.01501583 60.99407877 -0.01829385 62.93334961 -0.02760315 C65.6435405 -0.03775789 68.35240775 -0.02228315 71.0625 0 C71.86469971 -0.00809692 72.66689941 -0.01619385 73.4934082 -0.02453613 C77.09387563 0.03033112 79.1245547 0.20680866 82.02734375 2.42492676 C83.65685192 4.69235034 84.0743805 5.75722605 84.03125 8.51757812 C84.04671875 9.50757813 84.04671875 9.50757813 84.0625 10.51757812 C83.25733917 13.54877184 82.02578717 14.61141893 79.53125 16.51757812 C76.5833973 16.912136 74.00947717 17.06490127 71.0625 17.03515625 C69.78379028 17.04567017 69.78379028 17.04567017 68.47924805 17.05639648 C65.6629168 17.07399381 62.84759136 17.06234772 60.03125 17.04882812 C58.07356575 17.05152254 56.1158828 17.05540454 54.15820312 17.0604248 C50.05585993 17.0663222 45.95386518 17.05774906 41.8515625 17.0390625 C36.59204372 17.01627288 31.33334136 17.02939466 26.07385254 17.05335236 C22.0315129 17.06780376 17.98936695 17.06320735 13.94702148 17.05284119 C12.00773014 17.05017208 10.06842123 17.0534501 8.12915039 17.0627594 C5.4189595 17.07291414 2.71009225 17.0574394 0 17.03515625 C-0.80219971 17.04325317 -1.60439941 17.0513501 -2.4309082 17.05969238 C-6.03137563 17.00482513 -8.0620547 16.82834759 -10.96484375 14.61022949 C-12.59435192 12.34280591 -13.0118805 11.2779302 -12.96875 8.51757812 C-12.98421875 7.52757812 -12.98421875 7.52757812 -13 6.51757812 C-11.24883612 -0.07503884 -5.81974348 -0.05874101 0 0 Z " fill="#000000" transform="translate(116.46875,159.482421875)"/>
<path d="M0 0 C0.77444458 -0.00700928 1.54888916 -0.01401855 2.34680176 -0.02124023 C4.90344232 -0.03882686 7.45897344 -0.02719576 10.015625 -0.01367188 C11.79394747 -0.01636661 13.57226851 -0.02024888 15.35058594 -0.02526855 C19.07631468 -0.03116448 22.80165964 -0.02259774 26.52734375 -0.00390625 C31.30261787 0.01888354 36.07699276 0.00576094 40.85223389 -0.01819611 C44.52399468 -0.03265162 48.19554235 -0.02804927 51.86730957 -0.01768494 C53.62797146 -0.01501696 55.38865271 -0.01828992 57.14929199 -0.02760315 C59.61046587 -0.03776495 62.0701845 -0.0222744 64.53125 0 C65.2586438 -0.00809692 65.9860376 -0.01619385 66.73547363 -0.02453613 C70.17906688 0.03319039 71.96216633 0.28135145 74.71582031 2.42492676 C76.39732531 4.69540881 76.80921353 5.72791231 76.765625 8.51757812 C76.78109375 9.50757813 76.78109375 9.50757813 76.796875 10.51757812 C75.99974611 13.51853394 74.71165797 14.61346966 72.265625 16.51757812 C69.55182754 16.91240719 67.2431129 17.06534313 64.53125 17.03515625 C63.36958313 17.04567017 63.36958313 17.04567017 62.18444824 17.05639648 C59.62780768 17.07398311 57.07227656 17.06235201 54.515625 17.04882812 C52.73730253 17.05152286 50.95898149 17.05540513 49.18066406 17.0604248 C45.45493532 17.06632073 41.72959036 17.05775399 38.00390625 17.0390625 C33.22863213 17.01627271 28.45425724 17.02939531 23.67901611 17.05335236 C20.00725532 17.06780787 16.33570765 17.06320552 12.66394043 17.05284119 C10.90327854 17.05017321 9.14259729 17.05344617 7.38195801 17.0627594 C4.92078413 17.0729212 2.4610655 17.05743065 0 17.03515625 C-0.7273938 17.04325317 -1.4547876 17.0513501 -2.20422363 17.05969238 C-5.64781688 17.00196586 -7.43091633 16.7538048 -10.18457031 14.61022949 C-11.86607531 12.33974744 -12.27796353 11.30724394 -12.234375 8.51757812 C-12.24984375 7.52757812 -12.24984375 7.52757812 -12.265625 6.51757812 C-10.59962649 0.24558375 -5.60949142 -0.06244159 0 0 Z " fill="#000000" transform="translate(115.734375,319.482421875)"/>
<path d="M0 0 C0.77444458 -0.00700928 1.54888916 -0.01401855 2.34680176 -0.02124023 C4.90344232 -0.03882686 7.45897344 -0.02719576 10.015625 -0.01367188 C11.79394747 -0.01636661 13.57226851 -0.02024888 15.35058594 -0.02526855 C19.07631468 -0.03116448 22.80165964 -0.02259774 26.52734375 -0.00390625 C31.30261787 0.01888354 36.07699276 0.00576094 40.85223389 -0.01819611 C44.52399468 -0.03265162 48.19554235 -0.02804927 51.86730957 -0.01768494 C53.62797146 -0.01501696 55.38865271 -0.01828992 57.14929199 -0.02760315 C59.61046587 -0.03776495 62.0701845 -0.0222744 64.53125 0 C65.2586438 -0.00809692 65.9860376 -0.01619385 66.73547363 -0.02453613 C70.17906688 0.03319039 71.96216633 0.28135145 74.71582031 2.42492676 C76.39732531 4.69540881 76.80921353 5.72791231 76.765625 8.51757812 C76.78109375 9.50757813 76.78109375 9.50757813 76.796875 10.51757812 C75.99974611 13.51853394 74.71165797 14.61346966 72.265625 16.51757812 C69.55182754 16.91240719 67.2431129 17.06534313 64.53125 17.03515625 C63.36958313 17.04567017 63.36958313 17.04567017 62.18444824 17.05639648 C59.62780768 17.07398311 57.07227656 17.06235201 54.515625 17.04882812 C52.73730253 17.05152286 50.95898149 17.05540513 49.18066406 17.0604248 C45.45493532 17.06632073 41.72959036 17.05775399 38.00390625 17.0390625 C33.22863213 17.01627271 28.45425724 17.02939531 23.67901611 17.05335236 C20.00725532 17.06780787 16.33570765 17.06320552 12.66394043 17.05284119 C10.90327854 17.05017321 9.14259729 17.05344617 7.38195801 17.0627594 C4.92078413 17.0729212 2.4610655 17.05743065 0 17.03515625 C-0.7273938 17.04325317 -1.4547876 17.0513501 -2.20422363 17.05969238 C-5.64781688 17.00196586 -7.43091633 16.7538048 -10.18457031 14.61022949 C-11.86607531 12.33974744 -12.27796353 11.30724394 -12.234375 8.51757812 C-12.24984375 7.52757812 -12.24984375 7.52757812 -12.265625 6.51757812 C-10.59962649 0.24558375 -5.60949142 -0.06244159 0 0 Z " fill="#000000" transform="translate(155.734375,279.482421875)"/>
<path d="M0 0 C0.69641602 -0.00700928 1.39283203 -0.01401855 2.11035156 -0.02124023 C4.40730932 -0.03881383 6.70303021 -0.02720107 9 -0.01367188 C10.59896073 -0.01636701 12.19791987 -0.0202496 13.796875 -0.02526855 C17.14599226 -0.03116269 20.49468243 -0.0226038 23.84375 -0.00390625 C28.13478591 0.01888377 32.42482111 0.00576017 36.71582031 -0.01819611 C40.01700366 -0.03265667 43.31795011 -0.02804703 46.61914062 -0.01768494 C48.20117308 -0.01501834 49.78322711 -0.0182851 51.36523438 -0.02760315 C53.57740163 -0.03777366 55.787953 -0.02226378 58 0 C59.8871875 0.00477356 59.8871875 0.00477356 61.8125 0.00964355 C65.55520109 0.60605054 66.73159929 1.54273163 69 4.51757812 C69.53125 6.51757812 69.53125 6.51757812 69.5 8.51757812 C69.51546875 9.50757813 69.51546875 9.50757813 69.53125 10.51757812 C68.74176632 13.48975197 67.39936627 14.61414098 65 16.51757812 C61.8125 17.0255127 61.8125 17.0255127 58 17.03515625 C57.30358398 17.04216553 56.60716797 17.0491748 55.88964844 17.05639648 C53.59269068 17.07397008 51.29696979 17.06235732 49 17.04882812 C47.40103927 17.05152326 45.80208013 17.05540585 44.203125 17.0604248 C40.85400774 17.06631894 37.50531757 17.05776005 34.15625 17.0390625 C29.86521409 17.01627248 25.57517889 17.02939608 21.28417969 17.05335236 C17.98299634 17.06781292 14.68204989 17.06320328 11.38085938 17.05284119 C9.79882692 17.05017459 8.21677289 17.05344135 6.63476562 17.0627594 C4.42259837 17.07292991 2.212047 17.05742003 0 17.03515625 C-1.258125 17.03197388 -2.51625 17.0287915 -3.8125 17.0255127 C-7.55520109 16.42910571 -8.73159929 15.49242462 -11 12.51757812 C-11.53125 10.51757812 -11.53125 10.51757812 -11.5 8.51757812 C-11.51546875 7.52757812 -11.51546875 7.52757812 -11.53125 6.51757812 C-9.93997703 0.52690342 -5.4948528 0.01389899 0 0 Z " fill="#000000" transform="translate(115,399.482421875)"/>
<path d="M0 0 C0.87269531 -0.0038269 1.74539062 -0.00765381 2.64453125 -0.01159668 C4.48699092 -0.0143149 6.32948924 -0.00695994 8.171875 0.00976562 C10.99045934 0.03117752 13.80649485 0.00996199 16.625 -0.015625 C18.41667229 -0.01298171 20.20834299 -0.00785669 22 0 C22.84175781 -0.00809692 23.68351562 -0.01619385 24.55078125 -0.02453613 C30.38715618 0.06889601 30.38715618 0.06889601 33.52929688 2.43945312 C35.12144695 4.7039853 35.542797 5.7922417 35.5 8.53125 C35.5103125 9.19125 35.520625 9.85125 35.53125 10.53125 C34.72011424 13.58493756 33.53019712 14.62236769 31 16.53125 C28.00263779 17.13239553 25.04890723 17.09182764 22 17.0625 C21.12730469 17.0663269 20.25460938 17.07015381 19.35546875 17.07409668 C17.51300908 17.0768149 15.67051076 17.06945994 13.828125 17.05273438 C11.00954066 17.03132248 8.19350515 17.05253801 5.375 17.078125 C3.58332771 17.07548171 1.79165701 17.07035669 0 17.0625 C-0.84175781 17.07059692 -1.68351563 17.07869385 -2.55078125 17.08703613 C-8.38715618 16.99360399 -8.38715618 16.99360399 -11.52929688 14.62304688 C-13.12144695 12.3585147 -13.542797 11.2702583 -13.5 8.53125 C-13.51546875 7.54125 -13.51546875 7.54125 -13.53125 6.53125 C-11.69061453 -0.39820116 -5.94975317 -0.05723107 0 0 Z " fill="#000000" transform="translate(221,319.46875)"/>
<path d="M0 0 C0.87269531 -0.0038269 1.74539063 -0.00765381 2.64453125 -0.01159668 C4.48699092 -0.0143149 6.32948924 -0.00695994 8.171875 0.00976562 C10.99045934 0.03117752 13.80649485 0.00996199 16.625 -0.015625 C18.41667229 -0.01298171 20.20834299 -0.00785669 22 0 C22.84175781 -0.00809692 23.68351562 -0.01619385 24.55078125 -0.02453613 C30.38715618 0.06889601 30.38715618 0.06889601 33.52929688 2.43945312 C35.12144695 4.7039853 35.542797 5.7922417 35.5 8.53125 C35.5103125 9.19125 35.520625 9.85125 35.53125 10.53125 C34.72011424 13.58493756 33.53019712 14.62236769 31 16.53125 C28.00263779 17.13239553 25.04890723 17.09182764 22 17.0625 C21.12730469 17.0663269 20.25460937 17.07015381 19.35546875 17.07409668 C17.51300908 17.0768149 15.67051076 17.06945994 13.828125 17.05273438 C11.00954066 17.03132248 8.19350515 17.05253801 5.375 17.078125 C3.58332771 17.07548171 1.79165701 17.07035669 0 17.0625 C-0.84175781 17.07059692 -1.68351562 17.07869385 -2.55078125 17.08703613 C-8.38715618 16.99360399 -8.38715618 16.99360399 -11.52929688 14.62304688 C-13.12144695 12.3585147 -13.542797 11.2702583 -13.5 8.53125 C-13.51546875 7.54125 -13.51546875 7.54125 -13.53125 6.53125 C-11.69061453 -0.39820116 -5.94975317 -0.05723107 0 0 Z " fill="#000000" transform="translate(261,199.46875)"/>
<path d="M0 0 C3.12578143 1.6720747 5.39281175 3.7856235 7 7 C7.51512617 11.09157355 7.94367269 15.23589546 5.953125 18.95703125 C3.55501226 21.85592636 1.60351712 23.79811835 -2.171875 24.2734375 C-9.98876369 24.58137554 -9.98876369 24.58137554 -13.5625 21.625 C-17.3057723 17.59378368 -17.39037018 14.90519941 -17.359375 9.55078125 C-16.78039966 5.44131496 -15.00085071 3.78650423 -12 1 C-8.27533151 -0.86233425 -4.05504687 -0.57130829 0 0 Z " fill="#000000" transform="translate(81,396)"/>
<path d="M0 0 C3.12578143 1.6720747 5.39281175 3.7856235 7 7 C7.51512617 11.09157355 7.94367269 15.23589546 5.953125 18.95703125 C3.55501226 21.85592636 1.60351712 23.79811835 -2.171875 24.2734375 C-9.98876369 24.58137554 -9.98876369 24.58137554 -13.5625 21.625 C-17.3057723 17.59378368 -17.39037018 14.90519941 -17.359375 9.55078125 C-16.78039966 5.44131496 -15.00085071 3.78650423 -12 1 C-8.27533151 -0.86233425 -4.05504687 -0.57130829 0 0 Z " fill="#000000" transform="translate(81,356)"/>
<path d="M0 0 C3.12578143 1.6720747 5.39281175 3.7856235 7 7 C7.51512617 11.09157355 7.94367269 15.23589546 5.953125 18.95703125 C3.55501226 21.85592636 1.60351712 23.79811835 -2.171875 24.2734375 C-9.98876369 24.58137554 -9.98876369 24.58137554 -13.5625 21.625 C-17.3057723 17.59378368 -17.39037018 14.90519941 -17.359375 9.55078125 C-16.78039966 5.44131496 -15.00085071 3.78650423 -12 1 C-8.27533151 -0.86233425 -4.05504687 -0.57130829 0 0 Z " fill="#000000" transform="translate(81,316)"/>
<path d="M0 0 C3.12578143 1.6720747 5.39281175 3.7856235 7 7 C7.51512617 11.09157355 7.94367269 15.23589546 5.953125 18.95703125 C3.55501226 21.85592636 1.60351712 23.79811835 -2.171875 24.2734375 C-9.98876369 24.58137554 -9.98876369 24.58137554 -13.5625 21.625 C-17.3057723 17.59378368 -17.39037018 14.90519941 -17.359375 9.55078125 C-16.78039966 5.44131496 -15.00085071 3.78650423 -12 1 C-8.27533151 -0.86233425 -4.05504687 -0.57130829 0 0 Z " fill="#000000" transform="translate(121,276)"/>
<path d="M0 0 C3.12578143 1.6720747 5.39281175 3.7856235 7 7 C7.51512617 11.09157355 7.94367269 15.23589546 5.953125 18.95703125 C3.55501226 21.85592636 1.60351712 23.79811835 -2.171875 24.2734375 C-9.98876369 24.58137554 -9.98876369 24.58137554 -13.5625 21.625 C-17.3057723 17.59378368 -17.39037018 14.90519941 -17.359375 9.55078125 C-16.78039966 5.44131496 -15.00085071 3.78650423 -12 1 C-8.27533151 -0.86233425 -4.05504687 -0.57130829 0 0 Z " fill="#000000" transform="translate(121,236)"/>
<path d="M0 0 C3.12578143 1.6720747 5.39281175 3.7856235 7 7 C7.51512617 11.09157355 7.94367269 15.23589546 5.953125 18.95703125 C3.55501226 21.85592636 1.60351712 23.79811835 -2.171875 24.2734375 C-9.98876369 24.58137554 -9.98876369 24.58137554 -13.5625 21.625 C-17.3057723 17.59378368 -17.39037018 14.90519941 -17.359375 9.55078125 C-16.78039966 5.44131496 -15.00085071 3.78650423 -12 1 C-8.27533151 -0.86233425 -4.05504687 -0.57130829 0 0 Z " fill="#000000" transform="translate(81,196)"/>
<path d="M0 0 C3.12578143 1.6720747 5.39281175 3.7856235 7 7 C7.51512617 11.09157355 7.94367269 15.23589546 5.953125 18.95703125 C3.55501226 21.85592636 1.60351712 23.79811835 -2.171875 24.2734375 C-9.98876369 24.58137554 -9.98876369 24.58137554 -13.5625 21.625 C-17.3057723 17.59378368 -17.39037018 14.90519941 -17.359375 9.55078125 C-16.78039966 5.44131496 -15.00085071 3.78650423 -12 1 C-8.27533151 -0.86233425 -4.05504687 -0.57130829 0 0 Z " fill="#000000" transform="translate(81,156)"/>
</svg>
